<svg width="1441" height="353" viewBox="0 0 1441 353" fill="none" xmlns="http://www.w3.org/2000/svg">
    <circle cx="100.783" cy="157" r="100" fill="#DCD2D8"/>
    <path d="M84.455 291.469h-4v16.062h4v-16.062zm-23.375 8.156c0 3.906 3.344 6.781 7.781 6.781 4.422 0 7.766-2.875 7.782-6.781-.016-4.063-3.36-6.875-7.782-6.875-4.437 0-7.78 2.812-7.78 6.875zm3.906 0c-.03-2.234 1.594-3.531 3.875-3.531 2.22 0 3.828 1.297 3.844 3.531-.016 2.109-1.625 3.437-3.844 3.437-2.28 0-3.906-1.328-3.875-3.437zm.407 19.937h19.062v-10.75H65.393v10.75zm3.937-3.187v-4.406H80.55v4.406H69.33zm34.844-22.313h-5.719v-2.874h-3.969v2.874h-6.125v3.157h15.813v-3.157zM89.768 303.5c-.032 3.188 2.734 5.297 6.656 5.281 3.906.016 6.719-2.093 6.75-5.281-.031-3.156-2.844-5.328-6.75-5.344-3.922.016-6.688 2.188-6.656 5.344zm3.03 11.406c-.015 3.094 3.735 4.985 9.813 4.969 6.047.016 9.797-1.875 9.813-4.969-.016-3.156-3.766-5.015-9.813-5-6.078-.015-9.828 1.844-9.812 5zm.688-11.406c-.015-1.516 1.141-2.359 2.938-2.375 1.781.016 3.031.859 3.031 2.375 0 1.531-1.25 2.344-3.031 2.344-1.797 0-2.953-.813-2.938-2.344zm3.5 11.406c0-1.359 1.985-1.968 5.625-2 3.563.032 5.532.641 5.532 2 0 1.297-1.969 1.969-5.532 1.969-3.64 0-5.625-.672-5.625-1.969zm7.438-8.344h3.875v3h3.969v-18.124h-3.969v6.25h-3.813v3.187h3.813v2.5h-3.875v3.187zm35.5-15.124h-3.969v4.812h-5.344v3.219h5.344v7.625h3.969v-15.656zm-24.156 12.437 2.031 3.125c3.281-1.062 5.515-3.172 6.765-5.859 1.235 2.453 3.375 4.39 6.485 5.39l2-3.125c-4.485-1.312-6.453-4.531-6.438-7.875V292.5h-4.031v2.75c-.016 3.609-2.125 7.188-6.812 8.625zm5.187 15.687h18.969V308.25h-3.969v2.594h-11.062v-2.594h-3.938v11.312zm3.938-3.187v-2.469h11.062v2.469h-11.062zM66.236 347h1.407v-5.047h4.89v-1.234h-4.89v-3.781h5.406v-1.25h-6.813V347zm8.641 0h1.344v-5.344c0-1.14.906-1.984 2.125-1.984.351 0 .71.07.812.094v-1.36c-.156-.015-.5-.023-.703-.031-1 .008-1.883.578-2.187 1.437h-.094v-1.296h-1.297V347zm8.781.172c2.305.008 3.852-1.742 3.844-4.375.008-2.649-1.54-4.391-3.844-4.391-2.312 0-3.875 1.742-3.875 4.391 0 2.633 1.563 4.383 3.875 4.375zm-2.531-4.375c.008-1.688.805-3.203 2.531-3.203 1.711 0 2.5 1.515 2.5 3.203 0 1.695-.789 3.187-2.5 3.187-1.726 0-2.523-1.492-2.531-3.187zm9.484-.891c0-1.468.907-2.297 2.141-2.297 1.203 0 1.922.782 1.922 2.094V347h1.344v-5.391c.007-2.156-1.141-3.203-2.86-3.203-1.289 0-2.086.571-2.484 1.438h-.11v-1.328h-1.296V347h1.343v-5.094zm11.266-3.39h-1.781v-2.032h-1.36v2.032h-1.28v1.125h1.28v5.265c.008 1.5 1.196 2.203 2.328 2.203.399 0 .727-.031.938-.062v-1.25c-.195.008-.555.031-.797.031-.57 0-1.117-.18-1.109-1.266v-4.921h1.781v-1.125zm6.281 3.031h-4.953v1.234h4.953v-1.234zm2.235 5.453h6.937v-1.25h-5.531v-3.797h5.094v-1.234h-5.094v-3.781h5.453v-1.25h-6.859V347zm10.25-5.094c0-1.468.906-2.297 2.14-2.297 1.203 0 1.922.782 1.922 2.094V347h1.344v-5.391c.008-2.156-1.141-3.203-2.86-3.203-1.289 0-2.085.571-2.484 1.438h-.109v-1.328h-1.297V347h1.344v-5.094zm10.765 5.266c1.617.008 2.172-1 2.469-1.469h.141V347h1.312v-11.312h-1.359v4.171h-.094c-.289-.453-.805-1.453-2.453-1.453-2.133 0-3.625 1.688-3.625 4.375 0 2.696 1.492 4.399 3.609 4.391zm-2.25-4.422c0-1.773.805-3.141 2.438-3.141 1.578 0 2.414 1.258 2.422 3.141-.008 1.906-.868 3.219-2.422 3.219-1.61 0-2.438-1.414-2.438-3.219z" fill="#fff"/>
    <circle cx="348.783" cy="157" r="100" fill="#ECD5AF"/>
    <path d="M345.783 291.438h-4.031v28.5h4.031v-28.5zm-22.969 12.124c-.015 6.25 3.157 10.157 7.532 10.157 4.281 0 7.468-3.907 7.468-10.157 0-6.203-3.187-10.124-7.468-10.124-4.375 0-7.547 3.921-7.532 10.124zm3.844 0c-.015-4.218 1.469-6.531 3.688-6.531 2.156 0 3.609 2.313 3.625 6.531-.016 4.235-1.469 6.547-3.625 6.532-2.219.015-3.703-2.297-3.688-6.532zm45.531-12.124h-4v15.968h4v-6.281h3.844v-3.281h-3.844v-6.406zm-21.468 14.906h2.406c6.297 0 9.578-.11 13.156-.938l-.406-3.125c-3.172.641-6 .844-11.156.875v-6.781h8.687v-3.156h-12.687v13.125zm2.875 13.187h18.593v-10.937h-18.593v10.937zm3.937-3.125v-4.656h10.719v4.656h-10.719zM314.236 347h1.407v-5.047h4.89v-1.234h-4.89v-3.781h5.406v-1.25h-6.813V347zm8.641 0h1.344v-5.344c0-1.14.906-1.984 2.125-1.984.351 0 .711.07.812.094v-1.36c-.156-.015-.5-.023-.703-.031-1 .008-1.883.578-2.187 1.437h-.094v-1.296h-1.297V347zm8.781.172c2.305.008 3.852-1.742 3.844-4.375.008-2.649-1.539-4.391-3.844-4.391-2.312 0-3.875 1.742-3.875 4.391 0 2.633 1.563 4.383 3.875 4.375zm-2.531-4.375c.008-1.688.805-3.203 2.531-3.203 1.711 0 2.5 1.515 2.5 3.203 0 1.695-.789 3.187-2.5 3.187-1.726 0-2.523-1.492-2.531-3.187zm9.484-.891c0-1.468.907-2.297 2.141-2.297 1.203 0 1.922.782 1.922 2.094V347h1.344v-5.391c.007-2.156-1.141-3.203-2.86-3.203-1.289 0-2.086.571-2.484 1.438h-.11v-1.328h-1.296V347h1.343v-5.094zm11.266-3.39h-1.781v-2.032h-1.36v2.032h-1.281v1.125h1.281v5.265c.008 1.5 1.196 2.203 2.328 2.203.399 0 .727-.031.938-.062v-1.25c-.195.008-.555.031-.797.031-.57 0-1.117-.18-1.109-1.266v-4.921h1.781v-1.125zm6.281 3.031h-4.953v1.234h4.953v-1.234zm2.235 5.453h6.937v-1.25h-5.531v-3.797h5.094v-1.234h-5.094v-3.781h5.453v-1.25h-6.859V347zm10.25-5.094c0-1.468.906-2.297 2.14-2.297 1.203 0 1.922.782 1.922 2.094V347h1.344v-5.391c.008-2.156-1.141-3.203-2.86-3.203-1.289 0-2.085.571-2.484 1.438h-.109v-1.328h-1.297V347h1.344v-5.094zm10.765 5.266c1.617.008 2.172-1 2.469-1.469h.141V347h1.312v-11.312h-1.359v4.171h-.094c-.289-.453-.805-1.453-2.453-1.453-2.133 0-3.625 1.688-3.625 4.375 0 2.696 1.492 4.399 3.609 4.391zm-2.25-4.422c0-1.773.805-3.141 2.438-3.141 1.578 0 2.414 1.258 2.422 3.141-.008 1.906-.868 3.219-2.422 3.219-1.61 0-2.438-1.414-2.438-3.219z" fill="#fff"/>
    <circle cx="596.783" cy="157" r="100" fill="#DBCCDB"/>
    <path d="M580.455 291.438h-4.031v28.5h4.031v-28.5zm-22.969 12.124c-.015 6.25 3.157 10.157 7.532 10.157 4.281 0 7.468-3.907 7.468-10.157 0-6.203-3.187-10.124-7.468-10.124-4.375 0-7.547 3.921-7.532 10.124zm3.844 0c-.016-4.218 1.469-6.531 3.688-6.531 2.156 0 3.609 2.313 3.625 6.531-.016 4.235-1.469 6.547-3.625 6.532-2.219.015-3.704-2.297-3.688-6.532zm48.906 2.407h-25.937v3.187h25.937v-3.187zm-23.343-7.844c0 3.641 4.109 5.875 10.375 5.875 6.218 0 10.328-2.234 10.343-5.875-.015-3.625-4.125-5.844-10.343-5.813-6.266-.031-10.375 2.188-10.375 5.813zm.531 21.25h19.875v-3.187h-15.875v-5.126h-4v8.313zm3.625-21.25c-.031-1.719 2.265-2.656 6.219-2.687 3.921.031 6.218.968 6.218 2.687 0 1.766-2.297 2.656-6.218 2.656-3.954 0-6.25-.89-6.219-2.656zm46.844 7.563h-11.032v-2.75h-3.937v2.75h-10.969v3.187h25.938v-3.187zm-24.844-4.407 1.219 3.031c5.203-.374 8.828-1.89 10.625-4.187 1.781 2.297 5.406 3.813 10.656 4.187l1.187-3.031c-6.078-.359-8.984-2.187-9.531-4.156h8.188v-3.156h-8.532v-2.438h-3.937v2.438h-8.469v3.156h8.109c-.562 1.969-3.453 3.797-9.515 4.156zm1.875 13.75c0 3.141 3.703 4.86 9.969 4.844 6.234.016 9.875-1.703 9.906-4.844-.031-3.109-3.672-4.828-9.906-4.812-6.266-.016-9.969 1.703-9.969 4.812zm4.062 0c-.015-1.281 1.922-1.875 5.907-1.875 3.89 0 5.89.594 5.906 1.875-.016 1.313-2.016 1.907-5.906 1.907-3.985 0-5.922-.594-5.907-1.907zM564.096 347h4.109c2.672 0 3.789-1.305 3.797-3-.008-1.797-1.242-2.766-2.297-2.828v-.11c.984-.273 1.852-.921 1.844-2.374.008-1.665-1.11-3-3.485-3h-3.968V347zm1.406-1.25v-3.891h2.766c1.453 0 2.382.977 2.375 2.125.007.985-.68 1.766-2.454 1.766h-2.687zm0-5.109v-3.703h2.562c1.477 0 2.141.781 2.141 1.765 0 1.18-.961 1.945-2.187 1.938h-2.516zm7.922 3.953c0 1.656 1.281 2.601 2.89 2.609 1.477-.008 2.25-.789 2.532-1.359h.062V347h1.328v-5.594c.008-2.672-2.078-3-3.187-3-1.875 0-3.203.946-3.375 2.313h1.406c.188-.649.836-1.141 1.906-1.141 1.282 0 1.922.625 1.922 1.703v.688c-.383.008-1.75.086-2.297.125-1.468.109-3.187.554-3.187 2.5zm1.344.062c.007-.929.781-1.359 2-1.437.406-.024 1.742-.125 2.14-.149v.852c0 1.07-.844 2.086-2.359 2.078-1.031.008-1.774-.445-1.781-1.344zm11.093 2.516c1.883.008 3.133-1.156 3.344-2.672h-1.344c-.234.93-1 1.469-2 1.469-1.539 0-2.523-1.258-2.531-3.219.008-1.906 1.016-3.156 2.531-3.156 1.133 0 1.805.711 2 1.484h1.344c-.211-1.601-1.57-2.672-3.375-2.672-2.305 0-3.844 1.813-3.844 4.391 0 2.547 1.469 4.383 3.875 4.375zm5-.172h1.344v-3.164l.899-.836 3.148 4h1.703l-3.844-4.852 3.578-3.632h-1.656l-3.672 3.75h-.156v-6.578h-1.344V347zm12.438-5.453h-4.953v1.234h4.953v-1.234zm2.234 5.453h6.938v-1.25h-5.532v-3.797h5.094v-1.234h-5.094v-3.781h5.454v-1.25h-6.86V347zm10.25-5.094c0-1.468.906-2.297 2.141-2.297 1.203 0 1.922.782 1.922 2.094V347h1.343v-5.391c.008-2.156-1.14-3.203-2.859-3.203-1.289 0-2.086.571-2.484 1.438h-.11v-1.328h-1.297V347h1.344v-5.094zm10.766 5.266c1.617.008 2.172-1 2.469-1.469h.14V347h1.313v-11.312h-1.36v4.171h-.093c-.289-.453-.805-1.453-2.454-1.453-2.132 0-3.625 1.688-3.625 4.375 0 2.696 1.493 4.399 3.61 4.391zm-2.25-4.422c0-1.773.805-3.141 2.437-3.141 1.578 0 2.414 1.258 2.422 3.141-.008 1.906-.867 3.219-2.422 3.219-1.609 0-2.437-1.414-2.437-3.219z" fill="#fff"/>
    <circle cx="844.783" cy="157" r="100" fill="#D1D1D1"/>
    <path d="M828.455 291.469h-4v16.062h4v-16.062zm-23.375 8.156c0 3.906 3.344 6.781 7.781 6.781 4.422 0 7.766-2.875 7.782-6.781-.016-4.063-3.36-6.875-7.782-6.875-4.437 0-7.781 2.812-7.781 6.875zm3.906 0c-.031-2.234 1.594-3.531 3.875-3.531 2.219 0 3.828 1.297 3.844 3.531-.016 2.109-1.625 3.437-3.844 3.437-2.281 0-3.906-1.328-3.875-3.437zm.407 19.937h19.062v-10.75h-19.062v10.75zm3.937-3.187v-4.406h11.219v4.406H813.33zm42.938-24.937h-3.969v6.937h-4.438v3.219h4.438v6.718h3.969v-16.874zm-24.157 13.75 2.063 3.156c3.375-1.156 5.656-3.485 6.906-6.375 1.234 2.547 3.406 4.609 6.531 5.625l1.969-3.125c-4.422-1.469-6.453-4.813-6.531-8.125h5.656v-3.188h-15.437v3.188h5.718c-.093 3.562-2.218 7.281-6.875 8.844zm4.657 9.25c0 3.453 3.718 5.468 9.781 5.468 6.078 0 9.797-2.015 9.812-5.468-.015-3.454-3.734-5.485-9.812-5.5-6.063.015-9.781 2.046-9.781 5.5zm3.968 0c0-1.641 2.047-2.454 5.813-2.438 3.781-.016 5.828.797 5.844 2.438-.016 1.624-2.063 2.437-5.844 2.437-3.766 0-5.813-.813-5.813-2.437zm43.188-22.969h-3.969v7.062h-3.844v3.219h3.844v2.844h-3.844v3.156h3.844v5.375h3.969v-21.656zm-23.906 6.125h15.812v-3.156h-5.719v-3.032h-3.968v3.032h-6.125v3.156zm1.406 6.594c-.031 3.281 2.797 5.562 6.656 5.562 3.906 0 6.719-2.281 6.75-5.562-.031-3.282-2.844-5.594-6.75-5.594-3.859 0-6.687 2.312-6.656 5.594zm3.562 15.187h19.532v-3.187h-15.5v-4.907h-4.032v8.094zm.157-15.187c-.016-1.594 1.203-2.485 2.937-2.5 1.719.015 2.984.906 3 2.5-.016 1.64-1.281 2.531-3 2.531-1.734 0-2.953-.891-2.937-2.531zM812.096 347h4.109c2.672 0 3.789-1.305 3.797-3-.008-1.797-1.242-2.766-2.297-2.828v-.11c.984-.273 1.852-.921 1.844-2.374.008-1.665-1.11-3-3.485-3h-3.968V347zm1.406-1.25v-3.891h2.766c1.453 0 2.382.977 2.375 2.125.007.985-.68 1.766-2.454 1.766h-2.687zm0-5.109v-3.703h2.562c1.477 0 2.141.781 2.141 1.765 0 1.18-.961 1.945-2.187 1.938h-2.516zm7.922 3.953c0 1.656 1.281 2.601 2.89 2.609 1.477-.008 2.25-.789 2.532-1.359h.062V347h1.328v-5.594c.008-2.672-2.078-3-3.187-3-1.875 0-3.203.946-3.375 2.313h1.406c.188-.649.836-1.141 1.906-1.141 1.282 0 1.922.625 1.922 1.703v.688c-.383.008-1.75.086-2.297.125-1.468.109-3.187.554-3.187 2.5zm1.344.062c.007-.929.781-1.359 2-1.437.406-.024 1.742-.125 2.14-.149v.852c0 1.07-.844 2.086-2.359 2.078-1.031.008-1.774-.445-1.781-1.344zm11.093 2.516c1.883.008 3.133-1.156 3.344-2.672h-1.344c-.234.93-1 1.469-2 1.469-1.539 0-2.523-1.258-2.531-3.219.008-1.906 1.016-3.156 2.531-3.156 1.133 0 1.805.711 2 1.484h1.344c-.211-1.601-1.57-2.672-3.375-2.672-2.305 0-3.844 1.813-3.844 4.391 0 2.547 1.469 4.383 3.875 4.375zm5-.172h1.344v-3.164l.899-.836 3.148 4h1.703l-3.844-4.852 3.578-3.632h-1.656l-3.672 3.75h-.156v-6.578h-1.344V347zm12.438-5.453h-4.953v1.234h4.953v-1.234zm2.234 5.453h6.938v-1.25h-5.532v-3.797h5.094v-1.234h-5.094v-3.781h5.454v-1.25h-6.86V347zm10.25-5.094c0-1.468.906-2.297 2.141-2.297 1.203 0 1.922.782 1.922 2.094V347h1.343v-5.391c.008-2.156-1.14-3.203-2.859-3.203-1.289 0-2.086.571-2.484 1.438h-.11v-1.328h-1.297V347h1.344v-5.094zm10.766 5.266c1.617.008 2.172-1 2.469-1.469h.14V347h1.313v-11.312h-1.36v4.171h-.093c-.289-.453-.805-1.453-2.454-1.453-2.132 0-3.625 1.688-3.625 4.375 0 2.696 1.493 4.399 3.61 4.391zm-2.25-4.422c0-1.773.805-3.141 2.437-3.141 1.578 0 2.414 1.258 2.422 3.141-.008 1.906-.867 3.219-2.422 3.219-1.609 0-2.437-1.414-2.437-3.219z" fill="#fff"/>
    <circle cx="1092.78" cy="157" r="100" fill="#EFCFDB"/>
    <path d="M1076.46 291.438h-4.04v28.5h4.04v-28.5zm-22.97 12.124c-.02 6.25 3.15 10.157 7.53 10.157 4.28 0 7.47-3.907 7.47-10.157 0-6.203-3.19-10.124-7.47-10.124-4.38 0-7.55 3.921-7.53 10.124zm3.84 0c-.02-4.218 1.47-6.531 3.69-6.531 2.15 0 3.61 2.313 3.62 6.531-.01 4.235-1.47 6.547-3.62 6.532-2.22.015-3.71-2.297-3.69-6.532zm47.78-12.124h-3.81v10.937h-2.41v-10.531h-3.78v18.515c-4.28-2.218-5.75-6.937-5.75-11.89v-.907h4.35v-3.187h-13.04v3.187h4.82v.907c-.02 5.437-1.46 10.469-5.78 12.906l2.46 3.063c2.72-1.626 4.39-4.344 5.33-7.672 1.02 2.89 2.72 5.25 5.36 6.64l2.25-2.984v8.14h3.78v-12.937h2.41v14.25h3.81v-28.437zm13.5 4.437v-2.969h-4.03v2.719c-.02 3.891-2.05 7.609-6.81 9.125l2.15 3.188c3.21-1.141 5.44-3.344 6.69-6.157 1.2 2.578 3.3 4.625 6.35 5.657l2.12-3.157c-4.5-1.422-6.48-4.859-6.47-8.406zm-6.22 16.937h15.57v7.063h3.96v-10.219h-19.53v3.156zM1122.61 300h5.35v8.375h3.96v-16.937h-3.96v5.281h-5.35V300zM1060.1 347h4.11c2.67 0 3.78-1.305 3.79-3-.01-1.797-1.24-2.766-2.29-2.828v-.11c.98-.273 1.85-.921 1.84-2.374.01-1.665-1.11-3-3.49-3h-3.96V347zm1.4-1.25v-3.891h2.77c1.45 0 2.38.977 2.37 2.125.01.985-.68 1.766-2.45 1.766h-2.69zm0-5.109v-3.703h2.56c1.48 0 2.15.781 2.15 1.765 0 1.18-.97 1.945-2.19 1.938h-2.52zm7.92 3.953c0 1.656 1.29 2.601 2.89 2.609 1.48-.008 2.25-.789 2.54-1.359h.06V347h1.33v-5.594c0-2.672-2.08-3-3.19-3-1.88 0-3.2.946-3.38 2.313h1.41c.19-.649.84-1.141 1.91-1.141 1.28 0 1.92.625 1.92 1.703v.688c-.38.008-1.75.086-2.3.125-1.47.109-3.19.554-3.19 2.5zm1.35.062c.01-.929.78-1.359 2-1.437.4-.024 1.74-.125 2.14-.149v.852c0 1.07-.85 2.086-2.36 2.078-1.03.008-1.77-.445-1.78-1.344zm11.09 2.516c1.88.008 3.13-1.156 3.35-2.672h-1.35c-.23.93-1 1.469-2 1.469-1.54 0-2.52-1.258-2.53-3.219.01-1.906 1.02-3.156 2.53-3.156 1.13 0 1.81.711 2 1.484h1.35c-.22-1.601-1.58-2.672-3.38-2.672-2.3 0-3.84 1.813-3.84 4.391 0 2.547 1.47 4.383 3.87 4.375zm5-.172h1.35v-3.164l.89-.836 3.15 4h1.71l-3.85-4.852 3.58-3.632h-1.66l-3.67 3.75h-.15v-6.578h-1.35V347zm12.44-5.453h-4.95v1.234h4.95v-1.234zm2.23 5.453h6.94v-1.25h-5.53v-3.797h5.09v-1.234h-5.09v-3.781h5.45v-1.25h-6.86V347zm10.25-5.094c0-1.468.91-2.297 2.14-2.297 1.21 0 1.93.782 1.93 2.094V347h1.34v-5.391c.01-2.156-1.14-3.203-2.86-3.203-1.29 0-2.09.571-2.48 1.438h-.11v-1.328h-1.3V347h1.34v-5.094zm10.77 5.266c1.62.008 2.17-1 2.47-1.469h.14V347h1.31v-11.312h-1.36v4.171h-.09c-.29-.453-.81-1.453-2.46-1.453-2.13 0-3.62 1.688-3.62 4.375 0 2.696 1.49 4.399 3.61 4.391zm-2.25-4.422c0-1.773.8-3.141 2.44-3.141 1.57 0 2.41 1.258 2.42 3.141-.01 1.906-.87 3.219-2.42 3.219-1.61 0-2.44-1.414-2.44-3.219z" fill="#fff"/>
    <circle cx="1340.78" cy="157" r="100" fill="#F7E3D6"/>
    <path d="M1305.21 293.969h-3.75v19.156h11.31v-19.156h-3.69v6.406h-3.87v-6.406zm0 15.969V303.5h3.87v6.438h-3.87zm9.93 8.624h3.78v-13.031h2.57v14.344h3.81v-28.437h-3.81v10.843h-2.57v-10.437h-3.78v26.718zm37.97-27.124h-3.81v10.937h-2.41v-10.531h-3.78v18.515c-4.28-2.218-5.75-6.937-5.75-11.89v-.907h4.35v-3.187h-13.04v3.187h4.82v.907c-.02 5.437-1.46 10.469-5.78 12.906l2.46 3.063c2.72-1.626 4.39-4.344 5.33-7.672 1.02 2.89 2.72 5.25 5.36 6.64l2.25-2.984v8.14h3.78v-12.937h2.41v14.25h3.81v-28.437zm28.78 14.531h-25.93v3.187h25.93v-3.187zm-23.34-7.844c0 3.641 4.11 5.875 10.37 5.875 6.22 0 10.33-2.234 10.35-5.875-.02-3.625-4.13-5.844-10.35-5.813-6.26-.031-10.37 2.188-10.37 5.813zm.53 21.25h19.88v-3.187h-15.88v-5.126h-4v8.313zm3.63-21.25c-.04-1.719 2.26-2.656 6.21-2.687 3.93.031 6.22.968 6.22 2.687 0 1.766-2.29 2.656-6.22 2.656-3.95 0-6.25-.89-6.21-2.656zM1313.63 347c3.44 0 5.39-2.141 5.39-5.672 0-3.523-1.95-5.64-5.25-5.64h-3.66V347h3.52zm-2.11-1.25v-8.812h2.15c2.64 0 3.97 1.656 3.97 4.39 0 2.742-1.33 4.422-4.11 4.422h-2.01zm12.95 1.422c1.75.008 3.01-.867 3.41-2.156h-1.44c-.31.523-.95.968-1.97.968-1.51 0-2.55-.984-2.62-2.781h6.15v-.562c.01-3.141-1.87-4.235-3.65-4.235-2.31 0-3.85 1.813-3.85 4.422 0 2.602 1.52 4.352 3.97 4.344zm-2.62-5.11c.1-1.312 1.03-2.468 2.5-2.468 1.39 0 2.28 1.054 2.29 2.468h-4.79zm12.62-1.343h1.31c-.17-1.375-1.27-2.313-3.03-2.313-1.87 0-3.14 1.047-3.14 2.5 0 1.133.79 1.938 2.27 2.282l1.28.296c.96.227 1.39.618 1.39 1.219 0 .797-.76 1.305-1.97 1.297-1.07.008-1.67-.391-1.83-1.219h-1.4c.22 1.547 1.36 2.399 3.26 2.391 2.13.008 3.32-1.078 3.33-2.547-.01-1.18-.75-1.937-2.27-2.297l-1.26-.312c-.99-.243-1.45-.625-1.45-1.188 0-.711.75-1.273 1.79-1.281.99.008 1.53.469 1.72 1.172zm3.22 6.281h1.34v-8.484h-1.34V347zm-.27-10.781c0 .492.43.89.94.89.52 0 .95-.398.95-.89 0-.5-.43-.899-.95-.891-.51-.008-.94.391-.94.891zm7.19 14.14c2.07 0 3.68-.937 3.69-3.125v-8.718h-1.31v1.343h-.11c-.31-.453-.84-1.453-2.49-1.453-2.13 0-3.62 1.625-3.62 4.235 0 2.671 1.54 4.226 3.61 4.234 1.64-.008 2.18-.969 2.47-1.437h.11v1.718c0 1.399-.9 2.032-2.35 2.032-1.2 0-2.01-.43-2.19-1.297h-1.4c.15 1.57 1.54 2.468 3.59 2.468zm-2.48-7.671c0-1.711.8-3.079 2.43-3.079 1.58 0 2.42 1.258 2.43 3.079-.01 1.867-.87 2.984-2.43 2.984-1.6 0-2.43-1.227-2.43-2.984zm9.65-.782c0-1.468.91-2.297 2.14-2.297 1.21 0 1.93.782 1.93 2.094V347h1.34v-5.391c.01-2.156-1.14-3.203-2.86-3.203-1.29 0-2.09.571-2.48 1.438h-.11v-1.328h-1.3V347h1.34v-5.094zm11.13 5.266c1.75.008 3.01-.867 3.4-2.156h-1.43c-.32.523-.96.968-1.97.968-1.51 0-2.56-.984-2.63-2.781h6.16v-.562c.01-3.141-1.88-4.235-3.66-4.235-2.3 0-3.84 1.813-3.84 4.422 0 2.602 1.52 4.352 3.97 4.344zm-2.62-5.11c.09-1.312 1.02-2.468 2.49-2.468 1.4 0 2.29 1.054 2.3 2.468h-4.79zm7.9 4.938h1.34v-5.344c0-1.14.91-1.984 2.13-1.984.35 0 .71.07.81.094v-1.36c-.16-.015-.5-.023-.7-.031-1 .008-1.89.578-2.19 1.437h-.09v-1.296h-1.3V347z" fill="#fff"/>
    <path d="M382.353 130.537c25.171 27.431 28.558 43.464 30.662 46.837 3.628 5.798 3.132 14.539-5.698 17.812-7.897 2.925-16.242-4.825-15.275-9.014 0 0-1.273 4.212-3.901 3.259-2.207-.797-2.056-4.321-.533-9.557 0 0-8.349-19.104-11.911-28.114" fill="#F49E2F"/>
    <path d="M382.353 130.537c25.171 27.431 28.558 43.464 30.662 46.837 3.628 5.798 3.132 14.539-5.698 17.812-7.897 2.925-16.242-4.825-15.275-9.014 0 0-1.273 4.212-3.901 3.259-2.207-.797-2.056-4.321-.533-9.557 0 0-8.349-19.104-11.911-28.114" stroke="#231815" stroke-width="2" stroke-miterlimit="10"/>
    <path d="M321.058 79.256c6.052 0 10.958-5.366 10.958-11.986 0-6.62-4.906-11.987-10.958-11.987-6.052 0-10.958 5.367-10.958 11.987s4.906 11.986 10.958 11.986zM398.222 84.535c6.052 0 10.958-5.366 10.958-11.986 0-6.62-4.906-11.987-10.958-11.987-6.052 0-10.958 5.367-10.958 11.987s4.906 11.986 10.958 11.986z" fill="#F49E2F" stroke="#231815" stroke-width="2" stroke-miterlimit="10"/>
    <path d="M344.012 203.91c-16.147-3.944-22.534-21.03-15.704-43.139 3.552-12.619 6.604-19.685 13.095-27.171 6.491-7.486 9.477-11.208 19.605-11.142 10.128.066 20.619 8.34 26.176 21.147 5.557 12.807 6.524 17.166 6.524 17.166 6.825 22.109.438 39.195-15.709 43.139" fill="#F49E2F"/>
    <path d="M349.705 145.718c-2.877 9.25-9.778 28.926-9.778 28.926 1.915 5.104 2.325 8.609.188 9.571-2.552 1.141-4.136-2.963-4.136-2.963 1.278 4.104-6.468 12.459-14.558 10.128-9.048-2.599-10.198-11.283-7.014-17.331 1.854-3.524 4.033-19.765 27.086-49.002" fill="#F49E2F"/>
    <path d="M349.705 145.718c-2.877 9.25-9.778 28.926-9.778 28.926 1.915 5.104 2.325 8.609.189 9.571-2.553 1.141-4.138-2.963-4.138-2.963 1.279 4.104-6.467 12.459-14.557 10.128-9.048-2.599-10.198-11.283-7.014-17.331 1.854-3.524 4.033-19.765 27.086-49.002" stroke="#231815" stroke-width="2" stroke-miterlimit="10"/>
    <path d="M341.403 133.6c6.501-7.482 9.477-11.208 19.605-11.142 10.128.066 20.619 8.34 26.176 21.147 5.557 12.807 6.524 17.166 6.524 17.166 6.825 22.109.438 39.195-15.709 43.139" stroke="#231815" stroke-width="2" stroke-miterlimit="10"/>
    <path d="M371.117 205.361a81.5 81.5 0 0 1-9.241.472 70.498 70.498 0 0 1-10.977-.778" fill="#F49E2F"/>
    <path d="M371.117 205.361a81.5 81.5 0 0 1-9.241.472 70.498 70.498 0 0 1-10.977-.778" stroke="#231815" stroke-miterlimit="10"/>
    <path d="M389.632 167.852c0 14.463-3.887 23.426-14.968 23.426-9.269 0-16.769-8.963-16.769-23.426s8.49-26.19 16.769-26.19c8.279 0 14.968 11.727 14.968 26.19z" fill="#FDECD7"/>
    <path d="M357.564 213.816s-5.429 7.746-6.382 8.557c0 2.581-.137 7.27-4.208 8.152a36.35 36.35 0 0 1-8.222.816c-1.887 0-5.09-.057-7.127-.944-1.699-.745-4.02-2.358-5.609-6.519-1.321-3.462-.642-9.505.99-13.718 1.633-4.212 6.133-7.604 7.076-8.42l23.482 12.076z" fill="#F49E2F" stroke="#231815" stroke-width="2" stroke-miterlimit="10"/>
    <path d="m368.838 190.596 14.85 5.335s-.359 29.718-6.133 30.426c-5.773.707-13.038-3.623-18.109-6.156-5.071-2.533-25.279-13.619-30.846-22.034a18.876 18.876 0 0 1-2.495-6.538" fill="#F49E2F"/>
    <path d="m368.838 190.596 14.85 5.335s-.359 29.718-6.133 30.426c-5.773.707-13.038-3.623-18.109-6.156-5.071-2.533-25.279-13.619-30.846-22.034a18.876 18.876 0 0 1-2.495-6.538" stroke="#231815" stroke-width="2" stroke-miterlimit="10"/>
    <path d="M347.21 222.873s-4.717 4-14.817 0h14.817z" fill="#F49E2F"/>
    <path d="M347.21 222.873c-4.029 3.547-10.482 2.411-14.817 0a34.32 34.32 0 0 1 1.887.434c4.245.915 8.901 1.566 12.934-.434h-.004z" fill="#231815"/>
    <path d="M369.928 200.64s3.982-11.949 16.298-9.779c12.317 2.17 9.779 18.473 6.519 23.544-3.259 5.071-8.33 13.038-15.213 11.953-6.882-1.085-15.213-7.967-7.604-25.718z" fill="#F49E2F"/>
    <path d="M375.174 208.472c-2 7.127-.76 17.826 2.358 17.887 5.406.104 12.921-6.604 15.567-13.524 1.925-5.01.321-13.166-4.882-14.623-5.203-1.458-11.038 3.127-13.043 10.26z" fill="#C67B21"/>
    <path d="M392.203 201.458c-1.198-1.727-3.071-3.033-5.189-2.948a10.085 10.085 0 0 0-8.491 4.92c-1.514 2.358-2.26 5.123-2.953 7.821-.694 2.698-1.161 5.566-1 8.411-.741-4.246.108-8.656 1.34-12.737.882-2.788 2.401-5.495 4.835-7.212a10.282 10.282 0 0 1 6.288-1.802c2.245.042 4.245 1.641 5.189 3.566l-.019-.019z" fill="#231815"/>
    <path d="M370.659 198.968c1.628-3.207 6.175-9.764 15.567-8.109 12.312 2.175 9.779 18.473 6.519 23.544-3.26 5.071-7.297 11.897-14.26 12.052a21.332 21.332 0 0 1-6.213-.566" stroke="#231815" stroke-width="2" stroke-miterlimit="10"/>
    <path d="M408.128 98.55c1.858 20.878-11.156 36.464-42.62 37.398-35.29 1.052-52.507-16.511-50.875-37.398 1.958-25.002 20.93-42.927 46.747-42.927 25.818 0 44.521 17.916 46.748 42.927z" fill="#F49E2F" stroke="#231815" stroke-width="2" stroke-miterlimit="10"/>
    <path d="M392.085 103.788c0 6.737-3.534 10.911-13.595 10.911-8.425 0-13.6-4.174-13.6-10.911 0-6.736 6.09-12.198 13.6-12.198 7.509 0 13.595 5.462 13.595 12.198z" fill="#fff"/>
    <path d="M376.617 105.979a4.102 4.102 0 0 0 3.495 1.887 4.082 4.082 0 0 0 3.42-2.028" stroke="#040000" stroke-linecap="round" stroke-linejoin="round"/>
    <path d="M372.14 92.425a6.077 6.077 0 0 1-6.076 6.076 6.077 6.077 0 0 1-4.296-10.372 6.077 6.077 0 0 1 10.372 4.296z" fill="#fff" stroke="#040000" stroke-linecap="round" stroke-linejoin="round"/>
    <path d="M368.07 92.423a3.397 3.397 0 0 1-3.401 3.396 3.391 3.391 0 0 1-2.405-.993 3.397 3.397 0 0 1 0-4.808 3.401 3.401 0 0 1 5.806 2.405z" fill="#040000" stroke="#040000" stroke-linecap="round" stroke-linejoin="round"/>
    <path d="M386.037 92.425a6.074 6.074 0 0 0 6.076 6.076 6.074 6.074 0 0 0 6.076-6.076 6.073 6.073 0 0 0-6.076-6.075 6.075 6.075 0 0 0-6.076 6.075z" fill="#fff" stroke="#040000" stroke-linecap="round" stroke-linejoin="round"/>
    <path d="M390.698 95.824a3.401 3.401 0 1 0 0-6.803 3.401 3.401 0 0 0 0 6.803z" fill="#040000" stroke="#040000" stroke-linecap="round" stroke-linejoin="round"/>
    <path d="M364.56 89.634a1.242 1.242 0 0 1-1.245 1.24 1.243 1.243 0 0 1-1.241-1.24 1.243 1.243 0 1 1 2.486 0zM390.811 89.634a1.246 1.246 0 0 1-1.245 1.24 1.24 1.24 0 0 1-1.241-1.24 1.248 1.248 0 0 1 1.241-1.245 1.244 1.244 0 0 1 1.245 1.245z" fill="#fff"/>
    <path d="M360.328 85.257a9.584 9.584 0 0 1 9.534-1.594M397.316 85.257a9.574 9.574 0 0 0-9.528-1.594" stroke="#040000" stroke-width="2" stroke-linecap="round" stroke-linejoin="round"/>
    <path d="M375.419 98.363c-.038 1.33 2.019 2.462 4.59 2.533 2.571.071 4.689-.943 4.717-2.273.029-1.33-2.019-2.463-4.59-2.534-2.57-.07-4.679.948-4.717 2.274z" fill="#040000"/>
    <path d="M384.896 100.789c-1.085.91-2.854 1.448-4.92 1.391a8.682 8.682 0 0 1-3.864-.943c-1.297-.712-2.019-1.774-1.986-2.906.029-1.137.816-2.156 2.142-2.797a8.725 8.725 0 0 1 3.911-.74c3.396.094 5.91 1.759 5.854 3.867a2.892 2.892 0 0 1-1.137 2.128zm-8.18-2.401c.052.264 1.17 1.141 3.331 1.203 2.16.06 3.339-.765 3.396-1.02-.043-.254-1.165-1.14-3.335-1.202-2.17-.062-3.321.773-3.392 1.033v-.014z" fill="#040000"/>
    <path d="M331.228 65.08s5.892 1.19 14.01 2.624l1.113.198c14.449 2.504 35.144 5.623 42.894 4.349 0 0 .212-26.294-2.797-29.69-3.01-3.396-11.076-10.024-17.982-11.218a24.04 24.04 0 0 0-2.048-.25h-.028c-9.165-.73-22.619 2.972-26.836 6.161-5.68 4.274-7.519 16.416-8.326 27.827z" fill="#8456A0" stroke="#000" stroke-width="2" stroke-linecap="round" stroke-linejoin="round"/>
    <path d="m344.767 67.614.471.09 1.113.198c14.449 2.505 35.144 5.623 42.894 4.35 0 0 .212-26.294-2.797-29.69-3.01-3.397-11.076-10.025-17.982-11.218a24 24 0 0 0-2.048-.25h-.028c-9.472 1.245-16.85 5.774-18.628 9.75-1.778 3.977-4.255 21.147-2.995 26.77z" fill="#fff" stroke="#000" stroke-width="2" stroke-linecap="round" stroke-linejoin="round"/>
    <path d="M389.25 72.25c11.694-8.06 16.543-19.811 5.269-26.948-8.439-5.35-36.879-6.133-46.078 22.953 29.841 5.944 40.809 3.996 40.809 3.996zM330.407 139.212s10.996-6.986 17.359 11.605c6.133 17.948-20.42 12.788-20.42 12.788l-2.099 22.784s44.813 2.448 60.936-2.052c16.124-4.5 11.392-7.548 11.392-7.548s3.175-19.604-11.543-43.629c-1.245.401-2.674.17-4.665.712 0 0 2.566 5.152-1.986 6.831-6.434 2.358-13.057 2.443-19.972.943-7.652-1.67-11.19-5.189-16.039-6.76a25.802 25.802 0 0 0-9.524-1.103l-3.439 5.429z" fill="#F9E947" stroke="#000" stroke-width="2" stroke-linecap="round" stroke-linejoin="round"/>
    <path d="M361.305 197.429c2.665-.5 5.765-2.382 7.991-5.222-.075.198-.17.396-.26.594-2.066 4.378-6.25 7.35-9.717 8.02-3.467.669-6.382-.534-9.151-1.769-9.906-4.449-19.341-9.784-28.775-15.119l-26.653-15.095-15.095-8.534c-2.83-1.594-5.717-3.302-7.127-6.665-1.411-3.363-.864-8.963 2.283-13.048l.123-.155c-1.439 3.467-1.491 7.278-.425 9.83 1.415 3.378 4.316 5.071 7.128 6.661 5.031 2.849 10.063 5.695 15.095 8.538l26.652 15.095c9.434 5.331 18.869 10.656 28.775 15.095 2.774 1.241 5.684 2.43 9.156 1.774z" fill="#E27F3D"/>
    <path d="M369.296 192.206c-2.226 2.83-5.325 4.717-7.991 5.222-3.472.656-6.382-.533-9.156-1.769-9.906-4.453-19.34-9.779-28.775-15.095l-26.652-15.095a3715.727 3715.727 0 0 1-15.095-8.539c-2.83-1.589-5.713-3.301-7.128-6.66-1.066-2.552-1.014-6.364.425-9.831a12.072 12.072 0 0 1 6.722-4.344c2.306-.472 4.382-.085 6.349.471 6.18 1.722 11.642 4.878 17.077 8.02 18.809 10.909 37.616 21.815 56.422 32.718 2.5 1.453 5.524 2.085 7.264 4.576 1.67 2.368 2.203 6.359.538 10.326z" fill="#FEF7F1"/>
    <path d="M369.296 192.205c1.665-3.967 1.146-7.958-.514-10.326-1.741-2.491-4.765-3.123-7.265-4.576-18.806-10.9-37.613-21.806-56.422-32.718-5.434-3.152-10.897-6.307-17.077-8.02-1.967-.552-4.042-.943-6.349-.471a12.079 12.079 0 0 0-6.722 4.344l-.122.156c-3.147 4.071-3.703 9.665-2.284 13.048 1.42 3.382 4.312 5.071 7.128 6.665l15.095 8.533 26.652 15.095c9.435 5.336 18.869 10.671 28.775 15.119 2.769 1.236 5.685 2.42 9.152 1.769 3.467-.651 7.651-3.623 9.717-8.019.066-.203.161-.401.236-.599z" stroke="#212120" stroke-width="2" stroke-linecap="round" stroke-linejoin="round"/>
    <path d="M274.947 140.414c-1.439 3.467-1.491 7.279-.425 9.831 1.416 3.377 4.317 5.071 7.128 6.66 5.032 2.85 10.063 5.696 15.095 8.539l26.652 15.095c9.435 5.33 18.869 10.656 28.775 15.095 2.774 1.236 5.685 2.424 9.157 1.769 2.665-.5 5.764-2.383 7.99-5.222" stroke="#212120" stroke-width="2" stroke-linecap="round" stroke-linejoin="round"/>
    <path d="M287.901 171.079a5.115 5.115 0 0 0 .544-3.883 5.115 5.115 0 0 0-6.245-3.672 5.125 5.125 0 0 0-1.314 9.376 5.124 5.124 0 0 0 7.015-1.821z" fill="#212120"/>
    <path d="M285.466 169.662a2.301 2.301 0 0 0-3.366-3.004 2.304 2.304 0 0 0 1.962 4.065 2.305 2.305 0 0 0 1.404-1.061z" fill="#5F8FCB" stroke="#212120" stroke-linecap="round" stroke-linejoin="round"/>
    <path d="M315.156 184.685a5.123 5.123 0 1 0-10.19-1.07 5.123 5.123 0 0 0 10.19 1.07z" fill="#212120"/>
    <path d="M312.081 185.296a2.303 2.303 0 0 0 .244-1.742 2.295 2.295 0 0 0-2.802-1.648 2.278 2.278 0 0 0-1.404 1.06 2.303 2.303 0 0 0 .816 3.146 2.29 2.29 0 0 0 2.55-.146c.241-.182.443-.41.596-.67z" fill="#5F8FCB" stroke="#212120" stroke-linecap="round" stroke-linejoin="round"/>
    <path d="M342.663 202.172a5.125 5.125 0 1 0-8.508.486 5.12 5.12 0 0 0 1.493 1.33 5.124 5.124 0 0 0 3.884.547 5.112 5.112 0 0 0 3.131-2.363z" fill="#212120"/>
    <path d="M340.238 200.741a2.3 2.3 0 0 0-3.366-3 2.301 2.301 0 0 0 1.067 4.112 2.307 2.307 0 0 0 1.703-.442c.241-.182.443-.409.596-.67z" fill="#5F8FCB" stroke="#212120" stroke-linecap="round" stroke-linejoin="round"/>
    <path d="M345.394 158.815c-2.741 8.076-5.467 15.854-5.467 15.854 1.915 5.104 2.325 8.609.188 9.572-2.552 1.141-4.136-2.963-4.136-2.963 1.278 4.104-6.468 12.458-14.558 10.128-9.048-2.599-10.198-11.283-7.014-17.331 1.311-2.491 2.783-11.321 11.675-26.624" fill="#F49E2F"/>
    <path d="M345.394 158.815c-2.741 8.076-5.467 15.854-5.467 15.854 1.915 5.104 2.325 8.609.189 9.572-2.553 1.141-4.138-2.963-4.138-2.963 1.279 4.104-6.467 12.458-14.557 10.128-9.048-2.599-10.198-11.283-7.014-17.331 1.311-2.491 2.783-11.321 11.675-26.624" stroke="#231815" stroke-width="2" stroke-miterlimit="10"/>
    <path d="M384.58 149.296c-6.439-1.802-7.869 4.854-8.175 7.373-1.071-2.161-6.604-8.397-11.374-3.774-6.495 6.288 3.364 16.765 14.525 17.925 9.472-7.727 12.915-19.322 5.024-21.524z" fill="#8456A0" stroke="#000" stroke-width="2" stroke-linecap="round" stroke-linejoin="round"/>
    <path d="M553.169 80.565c6.052 0 10.958-5.367 10.958-11.987s-4.906-11.986-10.958-11.986c-6.052 0-10.958 5.366-10.958 11.986 0 6.62 4.906 11.987 10.958 11.987zM633.823 72.283c6.052 0 10.958-5.366 10.958-11.986 0-6.62-4.906-11.986-10.958-11.986-6.052 0-10.958 5.366-10.958 11.986 0 6.62 4.906 11.986 10.958 11.986z" fill="#F49E2F" stroke="#231815" stroke-width="2" stroke-miterlimit="10"/>
    <path d="M620.761 129.529c25.176 27.431 28.563 43.465 30.662 46.842 3.623 5.793 3.127 14.534-5.698 17.808-7.897 2.924-16.242-4.826-15.275-9.015 0 0-1.273 4.212-3.906 3.264-2.203-.797-2.056-4.325-.528-9.561 0 0-8.35-19.101-11.911-28.115" fill="#F49E2F"/>
    <path d="M620.761 129.529c25.176 27.431 28.563 43.465 30.662 46.842 3.623 5.793 3.127 14.534-5.698 17.808-7.897 2.924-16.242-4.826-15.275-9.015 0 0-1.273 4.212-3.906 3.264-2.203-.797-2.056-4.325-.528-9.561 0 0-8.35-19.101-11.911-28.115" stroke="#231815" stroke-width="2" stroke-miterlimit="10"/>
    <path d="M626.045 135.503c2.703 1.802 13.604 12.963 23.94 34.738l-23.794 11.029-12.887-25.096s-8.114-17.223 4.221-23.341c5.345-1.797 6.359 1.231 8.52 2.67z" fill="#E6D4C2" stroke="#231815" stroke-width="2" stroke-miterlimit="10"/>
    <path d="M582.41 202.903c-16.147-3.943-22.534-21.029-15.708-43.134 3.552-12.618 6.604-19.689 13.1-27.171 6.495-7.481 9.477-11.208 19.604-11.142 10.128.066 20.614 8.335 26.171 21.142 5.557 12.808 6.529 17.171 6.529 17.171 6.826 22.105.439 39.191-15.708 43.134" fill="#F49E2F"/>
    <path d="M588.104 144.711c-2.882 9.25-9.779 28.926-9.779 28.926 1.915 5.109 2.326 8.614.189 9.571-2.552 1.146-4.137-2.958-4.137-2.958 1.274 4.104-6.467 12.454-14.562 10.128-9.048-2.604-10.194-11.283-7.01-17.335 1.854-3.524 4.034-19.766 27.087-48.998" fill="#F49E2F"/>
    <path d="M588.104 144.711c-2.882 9.25-9.779 28.926-9.779 28.926 1.915 5.109 2.326 8.614.189 9.571-2.552 1.146-4.137-2.958-4.137-2.958 1.274 4.104-6.467 12.454-14.562 10.128-9.048-2.604-10.194-11.283-7.01-17.335 1.854-3.524 4.034-19.766 27.087-48.998" stroke="#231815" stroke-width="2" stroke-miterlimit="10"/>
    <path d="M579.802 132.598c6.5-7.481 9.477-11.208 19.605-11.142 10.128.066 20.614 8.335 26.171 21.142 5.556 12.808 6.528 17.171 6.528 17.171 6.826 22.105.439 39.191-15.708 43.134" stroke="#231815" stroke-width="2" stroke-miterlimit="10"/>
    <path d="M609.515 204.355c-3.068.332-6.154.49-9.24.472a70.389 70.389 0 0 1-10.978-.778" fill="#F49E2F"/>
    <path d="M609.515 204.355c-3.068.332-6.154.49-9.24.472a70.389 70.389 0 0 1-10.978-.778" stroke="#231815" stroke-miterlimit="10"/>
    <path d="M628.031 166.842c0 14.468-3.888 23.431-14.968 23.431-9.27 0-16.774-8.963-16.774-23.431 0-14.467 8.49-26.19 16.774-26.19 8.283 0 14.968 11.727 14.968 26.19z" fill="#FDECD7"/>
    <path d="M595.963 212.814s-5.434 7.741-6.382 8.557c0 2.58-.137 7.265-4.213 8.147-2.699.586-5.456.86-8.217.816-1.887 0-5.09-.052-7.128-.944-1.698-.75-4.024-2.358-5.609-6.519-1.321-3.467-.641-9.51.991-13.722 1.632-4.213 6.132-7.604 7.076-8.42l23.482 12.085z" fill="#F49E2F" stroke="#231815" stroke-width="2" stroke-miterlimit="10"/>
    <path d="m607.237 189.594 14.849 5.335s-.363 29.718-6.132 30.421c-5.769.703-13.038-3.618-18.109-6.156-5.071-2.538-25.28-13.614-30.846-22.029a18.787 18.787 0 0 1-2.495-6.543" fill="#F49E2F"/>
    <path d="m607.237 189.594 14.849 5.335s-.363 29.718-6.132 30.421c-5.769.703-13.038-3.618-18.109-6.156-5.071-2.538-25.28-13.614-30.846-22.029a18.787 18.787 0 0 1-2.495-6.543" stroke="#231815" stroke-width="2" stroke-miterlimit="10"/>
    <path d="M585.609 221.867s-4.718 3.996-14.817 0h14.817z" fill="#F49E2F"/>
    <path d="M585.609 221.867c-4.034 3.548-10.482 2.406-14.817 0 .641.118 1.259.274 1.887.429 4.245.944 8.901 1.567 12.934-.429h-.004z" fill="#231815"/>
    <path d="M608.322 199.637s3.986-11.953 16.303-9.779c12.316 2.175 9.778 18.473 6.518 23.544-3.259 5.071-8.33 13.038-15.213 11.948-6.882-1.089-15.212-7.967-7.608-25.713z" fill="#F49E2F"/>
    <path d="M613.572 207.453c-2 7.132-.759 17.831 2.359 17.887 5.406.104 12.92-6.604 15.567-13.524 1.929-5.005.325-13.161-4.883-14.623-5.207-1.463-11.043 3.141-13.043 10.26z" fill="#C67B21"/>
    <path d="M630.602 200.449c-1.199-1.727-3.071-3.034-5.189-2.953a10.09 10.09 0 0 0-8.515 4.924c-1.51 2.359-2.255 5.123-2.948 7.817-.694 2.693-1.166 5.566-1.005 8.411-.741-4.246.109-8.657 1.345-12.737.882-2.783 2.396-5.495 4.835-7.208a10.265 10.265 0 0 1 6.288-1.802c2.245.043 4.245 1.642 5.189 3.566v-.018z" fill="#231815"/>
    <path d="M609.058 197.963c1.628-3.203 6.175-9.765 15.567-8.104 12.312 2.17 9.779 18.472 6.519 23.543-3.26 5.071-7.298 11.892-14.265 12.053a21.326 21.326 0 0 1-6.207-.571" stroke="#231815" stroke-width="2" stroke-miterlimit="10"/>
    <path d="M646.527 97.544c1.858 20.873-11.157 36.464-42.62 37.398-35.295 1.047-52.508-16.51-50.875-37.398 1.953-25.001 20.93-42.927 46.747-42.927s44.521 17.926 46.748 42.927z" fill="#F49E2F" stroke="#231815" stroke-width="2" stroke-miterlimit="10"/>
    <path d="M630.483 102.778c0 6.736-3.533 10.911-13.599 10.911-8.421 0-13.595-4.175-13.595-10.911s6.09-12.194 13.595-12.194c7.505 0 13.599 5.458 13.599 12.194z" fill="#fff"/>
    <path d="M615.016 104.96a4.108 4.108 0 0 0 3.495 1.887 4.126 4.126 0 0 0 3.42-2.029" stroke="#040000" stroke-linecap="round" stroke-linejoin="round"/>
    <path d="M610.539 91.41a6.074 6.074 0 0 1-6.076 6.075 6.075 6.075 0 0 1-4.297-1.778 6.067 6.067 0 0 1-1.779-4.297 6.078 6.078 0 0 1 6.076-6.076 6.074 6.074 0 0 1 6.076 6.076z" fill="#fff" stroke="#040000" stroke-linecap="round" stroke-linejoin="round"/>
    <path d="M606.445 91.41a3.397 3.397 0 0 1-5.802 2.406 3.4 3.4 0 1 1 5.544-3.706c.171.412.258.854.258 1.3z" fill="#040000" stroke="#040000" stroke-linecap="round" stroke-linejoin="round"/>
    <path d="M624.436 91.41a6.077 6.077 0 0 0 10.372 4.296 6.077 6.077 0 0 0-8.593-8.593 6.077 6.077 0 0 0-1.779 4.297z" fill="#fff" stroke="#040000" stroke-linecap="round" stroke-linejoin="round"/>
    <path d="M629.097 94.82a3.401 3.401 0 1 0 0-6.803 3.401 3.401 0 0 0 0 6.803z" fill="#040000" stroke="#040000" stroke-linecap="round" stroke-linejoin="round"/>
    <path d="M602.954 88.627a1.247 1.247 0 0 1-1.241 1.246 1.244 1.244 0 0 1-1.147-.77 1.239 1.239 0 0 1 2.024-1.353c.233.233.364.548.364.877zM629.21 88.627a1.244 1.244 0 1 1-2.123-.877 1.24 1.24 0 0 1 1.756 0c.234.232.366.548.367.877z" fill="#fff"/>
    <path d="M598.727 84.251a9.574 9.574 0 0 1 9.529-1.594M635.719 84.251a9.575 9.575 0 0 0-9.529-1.594" stroke="#040000" stroke-width="2" stroke-linecap="round" stroke-linejoin="round"/>
    <path d="M613.818 97.359c-.038 1.325 2.018 2.462 4.589 2.533 2.571.07 4.689-.944 4.717-2.274.029-1.33-2.019-2.462-4.594-2.538-2.576-.075-4.675.948-4.712 2.279z" fill="#040000"/>
    <path d="M623.294 99.8c-1.085.906-2.859 1.449-4.925 1.387a8.651 8.651 0 0 1-3.863-.943c-1.292-.717-2.014-1.778-1.986-2.91.033-1.137.821-2.151 2.146-2.793a8.6 8.6 0 0 1 3.911-.74c3.392.094 5.91 1.754 5.849 3.863a2.88 2.88 0 0 1-1.132 2.137zm-8.185-2.405c.052.269 1.175 1.142 3.336 1.203 2.16.061 3.34-.76 3.392-1.02-.043-.25-1.161-1.136-3.331-1.197-2.17-.062-3.321.754-3.406 1.014h.009z" fill="#040000"/>
    <path d="M568.801 138.207s11.001-6.987 17.364 11.604c6.132 17.953-20.421 12.793-20.421 12.793l-2.099 22.784s44.813 2.443 60.937-2.057c16.123-4.5 11.392-7.547 11.392-7.547s3.175-19.605-11.543-43.63c-1.245.406-2.675.175-4.665.712 0 0 2.566 5.152-1.986 6.831-6.435 2.359-13.058 2.448-19.973.943-7.656-1.665-11.189-5.188-16.039-6.755a25.797 25.797 0 0 0-9.523-1.103l-3.444 5.425z" fill="#79832F" stroke="#070606" stroke-width="2" stroke-miterlimit="10"/>
    <path d="M583.792 157.782c-2.74 8.076-5.467 15.854-5.467 15.854 1.915 5.109 2.326 8.614.189 9.572-2.552 1.146-4.137-2.958-4.137-2.958 1.274 4.104-6.467 12.453-14.562 10.128-9.048-2.604-10.194-11.284-7.01-17.336 1.307-2.491 2.783-11.321 11.67-26.624" fill="#F49E2F"/>
    <path d="M583.792 157.782c-2.74 8.076-5.467 15.854-5.467 15.854 1.915 5.109 2.326 8.614.189 9.572-2.552 1.146-4.137-2.958-4.137-2.958 1.274 4.104-6.467 12.453-14.562 10.128-9.048-2.604-10.194-11.284-7.01-17.336 1.307-2.491 2.783-11.321 11.67-26.624" stroke="#231815" stroke-width="2" stroke-miterlimit="10"/>
    <path d="M568.801 138.202s-9.972 12.987-17.604 34.374l28.605 6.133 6.844-21.317s4.119-18.591-9.264-21.841c-5.609-.566-8.581 2.651-8.581 2.651z" fill="#E6D4C2" stroke="#231815" stroke-width="2" stroke-miterlimit="10"/>
    <path d="M607.081 142.63a29.54 29.54 0 0 1-8.575-1.312 81.46 81.46 0 0 1-9.69-3.849c-5.396-2.42-10.495-4.717-16.392-4.717h-.505l.684-3.477c4.147.354 37.686 3.468 41.865 12.213a23.07 23.07 0 0 1-7.387 1.142z" fill="#E6D4C2"/>
    <path d="M573.005 129.792c10.882.901 36.417 4.458 40.794 11.435a23.25 23.25 0 0 1-6.698.943 28.947 28.947 0 0 1-8.439-1.292 81.66 81.66 0 0 1-9.633-3.826c-5.425-2.434-10.547-4.717-16.51-4.75l.472-2.496m-.76-1.009-.882 4.472c.363 0 .722-.024 1.08-.024 9.142 0 16.458 5.661 25.945 8.538a29.992 29.992 0 0 0 8.712 1.331c4.958 0 8.02-1.331 8.02-1.331-3.604-10.009-42.866-12.986-42.866-12.986h-.009z" fill="#231815"/>
    <path d="M614.582 141.202c.043-.936.212-1.861.505-2.75.721-2.175 2.08-3.638 4.033-4.345a421.554 421.554 0 0 0 5.576-2.156l1.415 3.015c-2.646 1.934-9.066 6.217-11.529 6.236z" fill="#E6D4C2"/>
    <path d="m624.455 132.551 1.08 2.264c-3.17 2.274-8.114 5.397-10.449 5.859.161-1.623.892-4.925 4.194-6.132 1.311-.472 3.863-1.481 5.189-2m.472-1.199s-4.189 1.661-5.972 2.312c-5.071 1.84-4.854 7.953-4.854 7.953.154.04.312.059.471.057 3.269 0 12.156-6.557 12.156-6.557l-1.792-3.774-.009.009z" fill="#231815"/>
    <path d="M614.105 141.617s6.604 20.492 6.307 42.629l-6.307-42.629z" fill="#79832F"/>
    <path d="M614.105 141.617s6.604 20.492 6.307 42.629" stroke="#070606" stroke-width="2" stroke-miterlimit="10"/>
    <path d="M619.563 146.752a1.358 1.358 0 1 0 0-2.716 1.358 1.358 0 0 0 0 2.716zM622.922 160.469a1.358 1.358 0 1 0 0-2.716 1.358 1.358 0 0 0 0 2.716zM624.752 176.53a1.36 1.36 0 1 0-.001-2.72 1.36 1.36 0 0 0 .001 2.72z" fill="#E6D4C2" stroke="#231815" stroke-width="2" stroke-miterlimit="10"/>
    <path d="m633.399 127.103-1.595 1.32c.798 1.722.769 3.331-.075 4.774-1.132 1.939-3.746 3.552-6.982 4.453l-.943-1.16-.632 1.533a21.29 21.29 0 0 1-2.425.335c-12.34.99-23.208-1.467-32.308-7.293-7.288-4.675-13.486-11.515-18.397-20.341-8.434-15.095-10.241-31.001-10.255-31.162l-1.887.203c0 .16 1.849 16.378 10.458 31.827 5.08 9.114 11.486 16.195 19.043 21.044 8.109 5.189 17.548 7.821 28.119 7.821a67.91 67.91 0 0 0 5.383-.217c.471-.038.943-.094 1.415-.16l-2.66 6.476a.944.944 0 1 0 1.745.717l2.924-7.118 5.256 6.524a.944.944 0 0 0 1.471-1.184l-5.038-6.25c3.359-1.076 6.038-2.887 7.326-5.095 1.175-1.981 1.099-4.764.057-7.047zM637.856 65.81s-18.779 3.66-29.515 5.585l-1.468.264c-19.109 3.373-46.445 7.637-56.544 6.326 0 0-.859-25.27 3.302-29.393 4.16-4.123 28.482-12.364 37.614-13.968a37.33 37.33 0 0 1 2.704-.353h.033c12.071-1.114 30.756 1.334 36.11 5.019 7.179 4.948 7.359 12.967 7.764 26.52z" fill="#E6D4C2" stroke="#231815" stroke-width="2" stroke-miterlimit="10"/>
    <path d="M551.97 77.835a9.87 9.87 0 0 0-3.236.873c-10.076 4.68-14.472 8.42 2.175 8.524 9.595.061 61.324-3.444 91.32-13.364 17.562-5.812 11.072-7.925-3.302-8.057a10.12 10.12 0 0 0-2.066.193c-34.969 6.897-76.221 11.01-84.891 11.831z" fill="#E6D4C2" stroke="#231815" stroke-width="2" stroke-miterlimit="10"/>
    <path d="M550.475 63.732c-.377 7.241-.141 14.256-.141 14.256 10.099 1.311 37.435-2.953 56.545-6.326l1.467-.264c10.736-1.925 29.515-5.585 29.515-5.585-.184-6.274-.325-11.355-1.132-15.497-51.271 12.256-68.489 17.166-86.254 13.416z" fill="#79832F" stroke="#070606" stroke-width="2" stroke-miterlimit="10"/>
    <path d="M623.912 141.884a3.462 3.462 0 1 0 .001-6.925 3.462 3.462 0 0 0-.001 6.925z" fill="#E6D4C2" stroke="#231815" stroke-width="2" stroke-miterlimit="10"/>
    <path d="M880.344 82.844c6.052 0 10.958-5.367 10.958-11.986 0-6.62-4.906-11.987-10.958-11.987-6.052 0-10.958 5.367-10.958 11.986 0 6.62 4.906 11.987 10.958 11.987zM802.741 92.975c6.052 0 10.958-5.367 10.958-11.987s-4.906-11.986-10.958-11.986c-6.052 0-10.958 5.367-10.958 11.986 0 6.62 4.906 11.987 10.958 11.987z" fill="#F49E2F" stroke="#231815" stroke-width="2" stroke-miterlimit="10"/>
    <path d="M865.372 129.553c25.175 27.43 28.562 43.464 30.662 46.837 3.622 5.797 3.127 14.538-5.699 17.812-7.896 2.925-16.241-4.826-15.279-9.015 0 0-1.269 4.213-3.901 3.26-2.203-.797-2.057-4.321-.528-9.557 0 0-8.35-19.105-11.911-28.115" fill="#F49E2F"/>
    <path d="M865.372 129.553c25.175 27.43 28.562 43.464 30.662 46.837 3.622 5.797 3.127 14.538-5.699 17.812-7.896 2.925-16.241-4.826-15.279-9.015 0 0-1.269 4.213-3.901 3.26-2.203-.797-2.057-4.321-.528-9.557 0 0-8.35-19.105-11.911-28.115" stroke="#231815" stroke-width="2" stroke-miterlimit="10"/>
    <path d="M870.669 135.523c2.703 1.802 13.6 12.963 23.94 34.733l-23.798 11.034-12.883-25.096s-8.114-17.222 4.222-23.345c5.339-1.802 6.354 1.231 8.519 2.674z" fill="#FDEFEF" stroke="#231815" stroke-width="2" stroke-miterlimit="10"/>
    <path d="M827.036 202.925c-16.147-3.944-22.535-21.029-15.709-43.134 3.552-12.619 6.604-19.69 13.1-27.171 6.495-7.482 9.477-11.213 19.604-11.142 10.128.07 20.615 8.335 26.172 21.142 5.557 12.807 6.528 17.171 6.528 17.171 6.826 22.105.439 39.19-15.708 43.134" fill="#F49E2F"/>
    <path d="M832.724 144.733c-2.882 9.25-9.779 28.926-9.779 28.926 1.915 5.108 2.326 8.609.184 9.571-2.552 1.141-4.132-2.963-4.132-2.963 1.274 4.109-6.467 12.458-14.562 10.133-9.048-2.604-10.194-11.288-7.01-17.336 1.849-3.524 4.033-19.765 27.086-48.998" fill="#F49E2F"/>
    <path d="M832.724 144.733c-2.882 9.25-9.779 28.926-9.779 28.926 1.915 5.108 2.326 8.609.184 9.571-2.552 1.141-4.132-2.963-4.132-2.963 1.274 4.109-6.467 12.458-14.562 10.133-9.048-2.604-10.194-11.288-7.01-17.336 1.849-3.524 4.033-19.765 27.086-48.998" stroke="#231815" stroke-width="2" stroke-miterlimit="10"/>
    <path d="M824.426 132.62c6.501-7.482 9.477-11.213 19.605-11.142 10.128.07 20.614 8.335 26.171 21.142 5.557 12.807 6.529 17.171 6.529 17.171 6.825 22.105.438 39.19-15.709 43.134" stroke="#231815" stroke-width="2" stroke-miterlimit="10"/>
    <path d="M854.14 204.38a80.583 80.583 0 0 1-9.241.472 70.872 70.872 0 0 1-10.977-.774" fill="#F49E2F"/>
    <path d="M854.14 204.38a80.583 80.583 0 0 1-9.241.472 70.872 70.872 0 0 1-10.977-.774" stroke="#231815" stroke-miterlimit="10"/>
    <path d="M872.65 166.87c0 14.463-3.887 23.43-14.963 23.43-9.269 0-16.774-8.963-16.774-23.43 0-14.468 8.491-26.19 16.774-26.19 8.284 0 14.963 11.722 14.963 26.19z" fill="#FDECD7"/>
    <path d="M840.588 212.837s-5.435 7.741-6.383 8.557c0 2.58-.136 7.264-4.212 8.146-2.699.586-5.456.86-8.217.816-1.887 0-5.09-.052-7.133-.943-1.698-.745-4.019-2.359-5.604-6.519-1.321-3.463-.641-9.506.986-13.718s6.132-7.604 7.076-8.42l23.487 12.081z" fill="#F49E2F" stroke="#231815" stroke-width="2" stroke-miterlimit="10"/>
    <path d="m851.862 189.615 14.849 5.331s-.363 29.718-6.132 30.426c-5.769.707-13.043-3.623-18.114-6.156-5.071-2.533-25.275-13.619-30.841-22.034a18.819 18.819 0 0 1-2.5-6.538" fill="#F49E2F"/>
    <path d="m851.862 189.615 14.849 5.331s-.363 29.718-6.132 30.426c-5.769.707-13.043-3.623-18.114-6.156-5.071-2.533-25.275-13.619-30.841-22.034a18.819 18.819 0 0 1-2.5-6.538" stroke="#231815" stroke-width="2" stroke-miterlimit="10"/>
    <path d="M830.229 221.893s-4.718 3.995-14.817 0h14.817z" fill="#F49E2F"/>
    <path d="M830.229 221.893c-4.029 3.547-10.482 2.405-14.817 0 .646.118 1.264.273 1.887.429 4.245.92 8.901 1.566 12.93-.429z" fill="#231815"/>
    <path d="M852.946 199.658s3.986-11.953 16.298-9.778c12.312 2.174 9.784 18.467 6.52 23.538-3.265 5.071-8.331 13.044-15.209 11.954-6.878-1.09-15.213-7.967-7.609-25.714z" fill="#F49E2F"/>
    <path d="M858.197 207.484c-2 7.133-.764 17.831 2.359 17.888 5.406.104 12.92-6.604 15.566-13.524 1.93-5.01.326-13.161-4.882-14.624-5.208-1.462-11.043 3.137-13.043 10.26z" fill="#C67B21"/>
    <path d="M875.221 200.474c-1.194-1.727-3.066-3.029-5.189-2.949a10.094 10.094 0 0 0-8.491 4.92c-1.509 2.359-2.255 5.128-2.948 7.821-.694 2.694-1.165 5.567-1.005 8.411-.741-4.245.108-8.656 1.34-12.736.882-2.788 2.401-5.496 4.839-7.213a10.29 10.29 0 0 1 6.288-1.802c2.246.047 4.246 1.646 5.189 3.566l-.023-.018z" fill="#231815"/>
    <path d="M853.678 198.004c1.632-3.208 6.179-9.765 15.567-8.104 12.316 2.17 9.783 18.468 6.519 23.539-3.264 5.071-7.293 11.896-14.26 12.057a21.468 21.468 0 0 1-6.208-.571" stroke="#231815" stroke-width="2" stroke-miterlimit="10"/>
    <path d="M891.152 97.565c1.858 20.879-11.157 36.469-42.62 37.403-35.295 1.047-52.512-16.51-50.875-37.403 1.953-25 20.93-42.926 46.747-42.926s44.521 17.92 46.748 42.926z" fill="#F49E2F" stroke="#231815" stroke-width="2" stroke-miterlimit="10"/>
    <path d="M875.108 102.801c0 6.737-3.533 10.911-13.6 10.911-8.42 0-13.595-4.174-13.595-10.911 0-6.736 6.085-12.194 13.595-12.194 7.51 0 13.6 5.458 13.6 12.194z" fill="#fff"/>
    <path d="M855.159 91.439a6.073 6.073 0 0 1-10.369 4.297 6.08 6.08 0 0 1-1.782-4.297 6.08 6.08 0 0 1 6.08-6.076 6.074 6.074 0 0 1 6.071 6.076z" fill="#fff" stroke="#040000" stroke-linecap="round" stroke-linejoin="round"/>
    <path d="M851.069 91.44a3.397 3.397 0 1 1-6.797 0 3.4 3.4 0 0 1 6.54-1.301c.17.413.258.855.257 1.301z" fill="#040000" stroke="#040000" stroke-linecap="round" stroke-linejoin="round"/>
    <path d="M869.046 91.439a6.074 6.074 0 0 0 6.076 6.076 6.075 6.075 0 1 0-6.076-6.076z" fill="#fff" stroke="#040000" stroke-linecap="round" stroke-linejoin="round"/>
    <path d="M873.721 94.841a3.401 3.401 0 1 0 0-6.802 3.401 3.401 0 0 0 0 6.802z" fill="#040000" stroke="#040000" stroke-linecap="round" stroke-linejoin="round"/>
    <path d="M847.578 88.649a1.239 1.239 0 0 1-1.24 1.24 1.24 1.24 0 1 1 0-2.48 1.24 1.24 0 0 1 1.24 1.24zM873.829 88.649a1.239 1.239 0 0 1-2.117.877 1.24 1.24 0 1 1 2.117-.877z" fill="#fff"/>
    <path d="M843.352 84.28a9.574 9.574 0 0 1 9.529-1.594M880.368 84.28a9.589 9.589 0 0 0-9.534-1.594" stroke="#040000" stroke-width="2" stroke-linecap="round" stroke-linejoin="round"/>
    <path d="M858.437 97.387c-.033 1.326 2.019 2.458 4.595 2.533 2.576.076 4.689-.943 4.717-2.278.029-1.335-2.019-2.462-4.594-2.533-2.576-.07-4.68.948-4.718 2.278z" fill="#040000"/>
    <path d="M867.92 99.825c-1.085.906-2.859 1.444-4.925 1.387a8.563 8.563 0 0 1-3.863-.943c-1.293-.713-2.02-1.774-1.987-2.906.033-1.137.817-2.156 2.147-2.793a8.587 8.587 0 0 1 3.91-.74c3.392.094 5.906 1.754 5.849 3.863a2.897 2.897 0 0 1-1.131 2.132zm-8.185-2.406c.052.264 1.175 1.142 3.335 1.203 2.161.061 3.34-.76 3.392-1.019-.043-.254-1.161-1.136-3.331-1.198-2.169-.061-3.321.755-3.396 1.014z" fill="#040000"/>
    <path d="M813.426 138.23s11-6.986 17.359 11.604c6.132 17.949-20.416 12.789-20.416 12.789l-2.104 22.788s44.814 2.444 60.937-2.056c16.124-4.501 11.397-7.548 11.397-7.548s3.174-19.605-11.548-43.629c-1.241.401-2.675.174-4.661.712 0 0 2.567 5.151-1.99 6.83-6.43 2.359-13.053 2.449-19.968.944-7.656-1.665-11.194-5.189-16.039-6.76a25.865 25.865 0 0 0-9.528-1.099l-3.439 5.425z" fill="#CF514B" stroke="#231815" stroke-width="2" stroke-miterlimit="10"/>
    <path d="M828.417 157.805c-2.74 8.076-5.467 15.855-5.467 15.855 1.915 5.109 2.326 8.609.184 9.571-2.552 1.142-4.132-2.963-4.132-2.963 1.273 4.109-6.468 12.459-14.562 10.133-9.048-2.604-10.194-11.288-7.01-17.336 1.306-2.49 2.783-11.321 11.67-26.624" fill="#F49E2F"/>
    <path d="M828.417 157.805c-2.74 8.076-5.467 15.855-5.467 15.855 1.915 5.109 2.326 8.609.184 9.571-2.552 1.142-4.132-2.963-4.132-2.963 1.273 4.109-6.468 12.459-14.562 10.133-9.048-2.604-10.194-11.288-7.01-17.336 1.306-2.49 2.783-11.321 11.67-26.624" stroke="#231815" stroke-width="2" stroke-miterlimit="10"/>
    <path d="M813.426 138.227s-9.972 12.987-17.604 34.37l28.605 6.132 6.845-21.321s4.118-18.586-9.265-21.836c-5.609-.562-8.581 2.655-8.581 2.655z" fill="#FDEFEF" stroke="#231815" stroke-width="2" stroke-miterlimit="10"/>
    <path d="m815.987 133.279.878-4.472s39.266 2.971 42.87 12.981c0 0-6.868 3.001-16.727 0-9.859-3-17.36-8.981-27.021-8.509z" fill="#FDEFEF" stroke="#231815" stroke-width="2" stroke-miterlimit="10"/>
    <path d="M858.73 141.64s-.222-6.133 4.849-7.958c1.783-.646 5.972-2.307 5.972-2.307l1.797 3.774s-9.849 7.25-12.618 6.491z" fill="#FDEFEF" stroke="#231815" stroke-width="2" stroke-miterlimit="10"/>
    <path d="M858.729 141.639s6.605 20.491 6.307 42.629" stroke="#070606" stroke-width="2" stroke-miterlimit="10"/>
    <path d="M864.187 146.778a1.36 1.36 0 1 0 0-2.718 1.36 1.36 0 0 0 0 2.718zM867.546 160.493a1.36 1.36 0 1 0-.001-2.72 1.36 1.36 0 0 0 .001 2.72zM869.376 176.551a1.358 1.358 0 1 0 .002-2.716 1.358 1.358 0 0 0-.002 2.716zM830.734 76.195c17.953-3.4 20.373-3.08 26.01-3.915 16.652-2.472 23.213-4.797 32.634-9.49 10.76-5.36 2.118-8.02-10.345-5.426a10.15 10.15 0 0 0-1.887.567c-31.355 13.01-36.176 14.623-46.412 18.264z" fill="#FDEFEF" stroke="#231815" stroke-width="2" stroke-miterlimit="10"/>
    <path d="M878.009 57.568s-16.84 6.948-26.496 10.755l-1.321.529c-17.194 6.736-41.903 15.85-51.573 16.51 0 0-5.547-23.416-2.462-28.044 3.085-4.627 24.255-16.887 32.477-20.104a33.172 33.172 0 0 1 2.454-.835h.032c11.057-3.302 28.955-4.534 34.644-2.104 7.656 3.26 9.321 10.708 12.245 23.293z" fill="#FEFAFA" stroke="#231815" stroke-width="2" stroke-miterlimit="10"/>
    <path d="M862.895 56.065a7.84 7.84 0 1 0 0-15.68 7.84 7.84 0 0 0 0 15.68z" fill="#CF514B" stroke="#231815" stroke-width="2" stroke-miterlimit="10"/>
    <path d="M862.895 53.47a5.246 5.246 0 1 0 0-10.492 5.246 5.246 0 0 0 0 10.492z" fill="#BB3C3C"/>
    <path d="M858.975 87.863a10.379 10.379 0 0 1-10.377 10.378 10.378 10.378 0 0 1-10.402-10.378c0-5.746 4.656-7.826 10.402-7.826 5.745 0 10.377 2.08 10.377 7.826zM886.75 87.863a10.38 10.38 0 0 1-17.716 7.338 10.38 10.38 0 0 1-3.04-7.338c0-5.746 4.656-7.826 10.378-7.826s10.378 2.08 10.378 7.826z" fill="#231815"/>
    <path d="M890.288 84.676h-5.84v2.858h5.84v-2.858zM839.2 87.534l-41.209 1.934V86.61l41.209-1.934v2.858z" fill="#231815"/>
    <path d="M855.329 84.508s.873-2.037 6.062-2.037c5.188 0 6.25 2.037 6.25 2.037" stroke="#231815" stroke-width="6" stroke-miterlimit="10"/>
    <path d="M883.373 92.631a.63.63 0 0 0-.85-.895.627.627 0 0 0-.178.169 6.215 6.215 0 0 1-2.831 2.179.632.632 0 0 0-.394.575.64.64 0 0 0 .172.44.629.629 0 0 0 .694.15 7.445 7.445 0 0 0 3.387-2.618zM883.477 91.283a.62.62 0 0 0 .797-.391c.043-.117.079-.237.108-.359a.632.632 0 0 0-.471-.745.628.628 0 0 0-.746.472s.001.094-.07.226a.643.643 0 0 0 .137.637.645.645 0 0 0 .245.16zM854.306 92.496a.63.63 0 0 0 .108-.466.607.607 0 0 0-.254-.406.641.641 0 0 0-.47-.11.627.627 0 0 0-.408.256 6.212 6.212 0 0 1-2.83 2.18.638.638 0 0 0-.349.82.541.541 0 0 0 .127.193.624.624 0 0 0 .689.156 7.469 7.469 0 0 0 3.387-2.623zM854.423 91.149a.627.627 0 0 0 .798-.392c.043-.117.078-.237.103-.358a.625.625 0 0 0-1.221-.274c-.017.077-.04.153-.067.226a.626.626 0 0 0 .387.798z" fill="#fff" stroke="#060102" stroke-width=".75" stroke-miterlimit="10"/>
    <path d="M867.985 107.87a16.311 16.311 0 0 1-9.133.387c-1.335-.325-2.047-1.505-1.646-2.396a2.139 2.139 0 0 1 2.491-1.038c2.364.582 4.845.475 7.151-.307a2.158 2.158 0 0 1 2.576.826c.471.854-.142 2.09-1.439 2.528z" fill="#fff" stroke="#040000" stroke-linecap="round" stroke-linejoin="round"/>
    <path d="M867.471 108.034c-2.627.793-5.411.91-8.095.34.239-1.151.483-2.305.731-3.462 2.102.446 4.283.354 6.34-.269.345 1.132.684 2.259 1.024 3.391z" fill="#fff" stroke="#040000" stroke-linecap="round" stroke-linejoin="round"/>
    <path d="M864.957 108.586a16.32 16.32 0 0 1-3.029.127c.062-1.179.118-2.358.179-3.533a12.83 12.83 0 0 0 2.359-.104l.491 3.51z" fill="#fff" stroke="#040000" stroke-linecap="round" stroke-linejoin="round"/>
    <path d="M59.79 95.705c6.051 0 10.957-5.366 10.957-11.986 0-6.62-4.906-11.987-10.958-11.987-6.052 0-10.958 5.367-10.958 11.987s4.906 11.986 10.958 11.986zM137.75 93.067c6.052 0 10.958-5.367 10.958-11.987s-4.906-11.986-10.958-11.986c-6.052 0-10.958 5.366-10.958 11.986 0 6.62 4.906 11.987 10.958 11.987z" fill="#F49E2F" stroke="#231815" stroke-width="2" stroke-miterlimit="10"/>
    <path d="M121.546 131.242c25.171 27.431 28.563 43.465 30.662 46.837 3.628 5.798 3.132 14.539-5.698 17.813-7.897 2.924-16.237-4.826-15.275-9.015 0 0-1.273 4.212-3.901 3.26-2.208-.798-2.057-4.322-.528-9.558 0 0-8.35-19.104-11.916-28.114" fill="#F49E2F"/>
    <path d="M121.546 131.242c25.171 27.431 28.563 43.465 30.662 46.837 3.628 5.798 3.132 14.539-5.698 17.813-7.897 2.924-16.237-4.826-15.275-9.015 0 0-1.273 4.212-3.901 3.26-2.208-.798-2.057-4.322-.528-9.558 0 0-8.35-19.104-11.916-28.114" stroke="#231815" stroke-width="2" stroke-miterlimit="10"/>
    <path d="M126.862 137.215c2.703 1.802 13.6 12.963 23.94 34.732l-23.798 11.034-12.883-25.096s-8.113-17.222 4.222-23.345c5.321-1.802 6.335 1.231 8.519 2.675z" fill="#4278B8" stroke="#231815" stroke-width="2" stroke-miterlimit="10"/>
    <path d="M83.21 204.612c-16.147-3.943-22.534-21.029-15.708-43.139 3.552-12.613 6.604-19.684 13.095-27.166 6.49-7.481 9.481-11.213 19.604-11.142 10.124.071 20.619 8.336 26.176 21.143 5.557 12.807 6.524 17.165 6.524 17.165 6.83 22.11.443 39.196-15.704 43.139" fill="#F49E2F"/>
    <path d="M88.898 146.418c-2.877 9.251-9.773 28.926-9.773 28.926 1.91 5.109 2.325 8.609.184 9.571-2.552 1.142-4.138-2.962-4.138-2.962 1.279 4.109-6.462 12.458-14.557 10.132-9.047-2.604-10.193-11.288-7.014-17.335 1.854-3.524 4.038-19.766 27.09-48.998" fill="#F49E2F"/>
    <path d="M88.898 146.418c-2.877 9.251-9.773 28.926-9.773 28.926 1.91 5.109 2.325 8.609.184 9.571-2.552 1.142-4.138-2.962-4.138-2.962 1.279 4.109-6.462 12.458-14.557 10.132-9.047-2.604-10.193-11.288-7.014-17.335 1.854-3.524 4.038-19.766 27.09-48.998" stroke="#231815" stroke-width="2" stroke-miterlimit="10"/>
    <path d="M80.596 134.307c6.5-7.481 9.482-11.213 19.605-11.142 10.124.071 20.619 8.336 26.176 21.143 5.557 12.807 6.524 17.165 6.524 17.165 6.83 22.11.443 39.196-15.704 43.139" stroke="#231815" stroke-width="2" stroke-miterlimit="10"/>
    <path d="M110.31 206.066a80.495 80.495 0 0 1-9.236.471 71.057 71.057 0 0 1-10.982-.773" fill="#F49E2F"/>
    <path d="M110.31 206.066a80.495 80.495 0 0 1-9.236.471 71.057 71.057 0 0 1-10.982-.773" stroke="#231815" stroke-miterlimit="10"/>
    <path d="M128.825 168.555c0 14.463-3.886 23.431-14.962 23.431-9.27 0-16.775-8.963-16.775-23.431 0-14.467 8.491-26.19 16.775-26.19 8.283 0 14.962 11.727 14.962 26.19z" fill="#FDECD7"/>
    <path d="M96.762 214.522s-5.434 7.741-6.387 8.557c0 2.581-.132 7.265-4.208 8.147-2.698.586-5.456.86-8.218.816-1.886 0-5.094-.052-7.132-.944-1.698-.745-4.019-2.358-5.609-6.519-1.316-3.462-.636-9.505.991-13.717 1.628-4.213 6.133-7.605 7.076-8.421l23.487 12.081z" fill="#F49E2F" stroke="#231815" stroke-width="2" stroke-miterlimit="10"/>
    <path d="m108.036 191.307 14.85 5.33s-.364 29.719-6.161 30.426c-5.798.708-13.038-3.623-18.11-6.156-5.07-2.533-25.279-13.618-30.845-22.034a18.91 18.91 0 0 1-2.495-6.538" fill="#F49E2F"/>
    <path d="m108.036 191.307 14.85 5.33s-.364 29.719-6.161 30.426c-5.798.708-13.038-3.623-18.11-6.156-5.07-2.533-25.279-13.618-30.845-22.034a18.91 18.91 0 0 1-2.495-6.538" stroke="#231815" stroke-width="2" stroke-miterlimit="10"/>
    <path d="M86.403 223.598s-4.717 3.995-14.816 0h14.816z" fill="#F49E2F"/>
    <path d="M86.403 223.598c-4.028 3.553-10.481 2.411-14.816 0 .641.118 1.264.274 1.887.43 4.245.943 8.9 1.566 12.934-.434l-.005.004z" fill="#231815"/>
    <path d="M109.121 201.35s3.982-11.954 16.299-9.779c12.316 2.175 9.778 18.468 6.519 23.539-3.26 5.071-8.331 13.043-15.213 11.953-6.883-1.089-15.213-7.967-7.605-25.713z" fill="#F49E2F"/>
    <path d="M114.371 209.176c-2.005 7.132-.764 17.831 2.359 17.888 5.41.103 12.92-6.605 15.567-13.525 1.924-5.009.325-13.161-4.883-14.623-5.207-1.462-11.043 3.132-13.043 10.26z" fill="#C67B21"/>
    <path d="M131.396 202.159c-1.198-1.726-3.066-3.028-5.189-2.948a10.085 10.085 0 0 0-8.491 4.92c-1.51 2.358-2.255 5.127-2.954 7.821-.698 2.694-1.16 5.566-.999 8.411-.741-4.246.108-8.656 1.339-12.737.883-2.788 2.401-5.495 4.84-7.212a10.27 10.27 0 0 1 6.284-1.802c2.245.047 4.245 1.646 5.189 3.566l-.019-.019z" fill="#231815"/>
    <path d="M109.853 199.676c1.627-3.208 6.175-9.765 15.567-8.104 12.316 2.17 9.778 18.468 6.518 23.539-3.259 5.071-7.297 11.896-14.259 12.057a21.54 21.54 0 0 1-6.213-.571" stroke="#231815" stroke-width="2" stroke-miterlimit="10"/>
    <path d="M147.321 99.25c1.859 20.879-11.156 36.47-42.62 37.404-35.29 1.047-52.507-16.511-50.875-37.403 1.958-25.001 20.93-42.927 46.747-42.927 25.818 0 44.522 17.92 46.748 42.927z" fill="#F49E2F" stroke="#231815" stroke-width="2" stroke-miterlimit="10"/>
    <path d="M131.278 104.487c0 6.736-3.528 10.911-13.595 10.911-8.42 0-13.6-4.175-13.6-10.911s6.09-12.194 13.6-12.194 13.595 5.458 13.595 12.194z" fill="#fff"/>
    <path d="M69.6 139.917s10.997-6.986 17.36 11.605c6.132 17.949-20.42 12.788-20.42 12.788l-2.1 22.789s44.813 2.443 60.937-2.057c16.123-4.5 11.397-7.547 11.397-7.547s3.174-19.605-11.548-43.63c-1.241.401-2.675.175-4.666.712 0 0 2.567 5.152-1.985 6.831-6.43 2.359-13.053 2.448-19.969.943-7.655-1.665-11.193-5.188-16.038-6.759a25.867 25.867 0 0 0-9.528-1.099l-3.44 5.424z" fill="#E7BBD7" stroke="#231815" stroke-width="2" stroke-miterlimit="10"/>
    <path d="M84.592 159.493c-2.741 8.076-5.468 15.854-5.468 15.854 1.911 5.109 2.326 8.609.185 9.572-2.552 1.141-4.138-2.963-4.138-2.963 1.279 4.109-6.462 12.458-14.557 10.133-9.047-2.604-10.193-11.289-7.014-17.336 1.311-2.491 2.783-11.321 11.675-26.624" fill="#F49E2F"/>
    <path d="M84.592 159.493c-2.741 8.076-5.468 15.854-5.468 15.854 1.911 5.109 2.326 8.609.185 9.572-2.552 1.141-4.138-2.963-4.138-2.963 1.279 4.109-6.462 12.458-14.557 10.133-9.047-2.604-10.193-11.289-7.014-17.336 1.311-2.491 2.783-11.321 11.675-26.624" stroke="#231815" stroke-width="2" stroke-miterlimit="10"/>
    <path d="M69.6 139.916s-9.972 12.987-17.609 34.37l28.605 6.156 6.845-21.322s4.123-18.586-9.26-21.836c-5.609-.585-8.58 2.632-8.58 2.632z" fill="#4278B8" stroke="#231815" stroke-width="2" stroke-miterlimit="10"/>
    <path d="m72.144 134.968.882-4.472s39.261 2.972 42.87 12.982c0 0-6.873 3-16.728 0-9.854-3-17.354-8.982-27.024-8.51z" fill="#4278B8" stroke="#231815" stroke-width="2" stroke-miterlimit="10"/>
    <path d="M114.9 143.325s-.217-6.132 4.854-7.958c1.783-.646 5.972-2.306 5.972-2.306l1.792 3.773s-9.835 7.251-12.618 6.491z" fill="#4278B8" stroke="#231815" stroke-width="2" stroke-miterlimit="10"/>
    <path d="M114.9 143.324s6.604 20.492 6.311 42.63" stroke="#070606" stroke-width="2" stroke-miterlimit="10"/>
    <path d="M120.358 148.461a1.359 1.359 0 1 0 0-2.718 1.359 1.359 0 0 0 0 2.718zM123.717 162.178a1.358 1.358 0 1 0 0-2.716 1.358 1.358 0 0 0 0 2.716zM125.552 178.237a1.359 1.359 0 1 0-.002-2.718 1.359 1.359 0 0 0 .002 2.718zM139.944 68.543s-17.279.873-27.143 1.25l-1.349.057c-17.553.641-42.62 1.184-51.668-.585 0 0 .36-19.524 4.416-21.977 4.057-2.453 26.709-5.963 35.1-6.265a33.206 33.206 0 0 1 2.472 0h.029c9.764.255 28.775 3.745 36.171 6.604a3.454 3.454 0 0 1 2.208 3.227c-.023 7.316.363 9.184-.236 17.69z" fill="#4278B8" stroke="#231815" stroke-width="2" stroke-miterlimit="10"/>
    <path d="M61.294 69.309a11.504 11.504 0 0 0-2.996.311c-9.467 2.321-25.624 5.722 1.33 6 8.737.095 55.55 1.048 83.684-1.207 20.671-1.656 16.628-5.26-2.359-5.774-.627 0-1.255-.08-1.887-.047-32.209 1.698-69.876.906-77.772.717z" fill="#4278B8" stroke="#231815" stroke-width="2" stroke-miterlimit="10"/>
    <path d="M60.978 59.562c-.882 4.901-1.194 9.703-1.194 9.703 9.048 1.77 34.115 1.227 51.668.585l1.349-.056c9.864-.378 27.143-1.25 27.143-1.25.297-4.293.552-7.77.132-10.661-45.29 2.118-59.56 1.085-79.098 1.679z" fill="#E7BBD7" stroke="#231815" stroke-width="2" stroke-miterlimit="10"/>
    <path d="M114.598 99.065c-.038 1.326 2.019 2.458 4.595 2.533 2.575.076 4.684-.943 4.717-2.278.033-1.335-2.019-2.463-4.59-2.533-2.571-.071-4.67.957-4.722 2.278z" fill="#040000"/>
    <path d="M124.089 101.512c-1.085.906-2.853 1.444-4.92 1.387a8.553 8.553 0 0 1-3.863-.943c-1.297-.712-2.019-1.774-1.986-2.906.028-1.137.816-2.156 2.142-2.793a8.611 8.611 0 0 1 3.91-.74c3.397.094 5.911 1.755 5.854 3.863a2.901 2.901 0 0 1-1.137 2.132zm-8.179-2.405c.052.264 1.169 1.141 3.33 1.203 2.16.061 3.34-.76 3.396-1.02-.042-.254-1.165-1.136-3.335-1.198-2.17-.06-3.316.755-3.391 1.015z" fill="#040000"/>
    <path d="M105.055 86.445a7.5 7.5 0 0 0-7.415 7.58 7.618 7.618 0 0 0 2.929 6.034 2.362 2.362 0 0 0 2.081.425 9.061 9.061 0 0 1 4.91-.118c.367.106.754.121 1.128.045a2.367 2.367 0 0 0 1.018-.484 7.617 7.617 0 0 0 2.76-5.901 7.492 7.492 0 0 0-7.411-7.58z" fill="#fff" stroke="#060102" stroke-linecap="round" stroke-linejoin="round"/>
    <path d="M105.541 96.446a2.357 2.357 0 0 1-3.047.08c-1.5-1.208-3.51-3.231-2.505-4.788.779-1.203 1.816-1.014 2.656-.528a2.358 2.358 0 0 0 2.467 0 2.165 2.165 0 0 1 2.076-.17c1.783.665.467 3.542-1.647 5.406z" fill="#F3B0CE" stroke="#060102" stroke-linecap="round" stroke-linejoin="round"/>
    <path d="M97.356 88.122s6.444-.09 9.317-4.354" stroke="#060102" stroke-width="4" stroke-linecap="round" stroke-linejoin="round"/>
    <path d="M100.196 101.64s5.576-3.444 10.081 0" stroke="#060102" stroke-linecap="round" stroke-linejoin="round"/>
    <path d="M131.523 87.742a5.966 5.966 0 0 0-5.468 3.742 5.95 5.95 0 0 0-.428 2.287 6.037 6.037 0 0 0 3.094 5.293c.361.203.78.278 1.189.212a6.16 6.16 0 0 1 2.585.118c.428.123.885.098 1.297-.071a6.01 6.01 0 0 0 3.623-5.552 5.96 5.96 0 0 0-5.892-6.029z" fill="#fff" stroke="#060102" stroke-linecap="round" stroke-linejoin="round"/>
    <path d="M132.245 96.232a2.139 2.139 0 0 1-2.754.07c-1.359-1.094-3.175-2.924-2.265-4.33.703-1.09 1.642-.92 2.401-.471a2.113 2.113 0 0 0 2.231 0 1.972 1.972 0 0 1 1.887-.151c1.609.566.411 3.17-1.5 4.882z" fill="#F3B0CE" stroke="#060102" stroke-linecap="round" stroke-linejoin="round"/>
    <path d="M126.891 86.433s3.957-3.26 8.962 0" stroke="#060102" stroke-width="4" stroke-linecap="round" stroke-linejoin="round"/>
    <path d="M127.406 99.922s3.717-1.84 6.66.221" stroke="#060102" stroke-linecap="round" stroke-linejoin="round"/>
    <path d="M113.088 105.809c-.174 2.51 1.133 6.463 5.189 7.246 4.751.92 6.444-4.83 6.604-6.019.161-1.189.001-2.575-1.523-2.137-1.524.439-4.354 1.604-7.331.255-1.702-.769-2.844-.632-2.939.655z" fill="#060102" stroke="#060102" stroke-width=".75" stroke-miterlimit="10"/>
    <path d="M119.867 113.118c2.307-.302 2.401-3.637.118-4.099a4.801 4.801 0 0 0-.986-.099c-.206 0-.413.013-.618.038-2.293.283-2.41 3.641-.146 4.094h.047c.521.11 1.057.132 1.585.066z" fill="#EC696A" stroke="#060102" stroke-width=".75" stroke-miterlimit="10"/>
    <path d="M1114.43 130.404c25.17 27.431 28.56 43.465 30.66 46.837 3.62 5.798 3.13 14.539-5.7 17.813-7.89 2.924-16.24-4.826-15.28-9.015 0 0-1.27 4.212-3.9 3.26-2.2-.798-2.06-4.321-.53-9.557 0 0-8.35-19.101-11.91-28.115" fill="#F49E2F"/>
    <path d="M1114.43 130.404c25.17 27.431 28.56 43.465 30.66 46.837 3.62 5.798 3.13 14.539-5.7 17.813-7.89 2.924-16.24-4.826-15.28-9.015 0 0-1.27 4.212-3.9 3.26-2.2-.798-2.06-4.321-.53-9.557 0 0-8.35-19.101-11.91-28.115" stroke="#231815" stroke-width="2" stroke-miterlimit="10"/>
    <path d="M1119.73 136.374c2.7 1.802 13.6 12.963 23.94 34.738l-23.8 11.028-12.89-25.095s-8.11-17.223 4.23-23.341c5.34-1.807 6.35 1.231 8.52 2.67z" fill="#8EC1E8" stroke="#231815" stroke-width="2" stroke-miterlimit="10"/>
    <path d="M1076.09 203.774c-16.15-3.943-22.53-21.029-15.71-43.134 3.56-12.618 6.61-19.689 13.1-27.171 6.5-7.481 9.48-11.213 19.61-11.142 10.13.071 20.61 8.335 26.17 21.143 5.56 12.807 6.53 17.17 6.53 17.17 6.82 22.105.44 39.191-15.71 43.134" fill="#F49E2F"/>
    <path d="M1081.78 145.586c-2.88 9.25-9.77 28.926-9.77 28.926 1.91 5.109 2.32 8.609.18 9.571-2.55 1.147-4.13-2.962-4.13-2.962 1.27 4.108-6.47 12.458-14.56 10.132-9.05-2.604-10.2-11.283-7.01-17.335 1.84-3.524 4.03-19.766 27.08-48.998" fill="#F49E2F"/>
    <path d="M1081.78 145.586c-2.88 9.25-9.77 28.926-9.77 28.926 1.91 5.109 2.32 8.609.18 9.571-2.55 1.147-4.13-2.962-4.13-2.962 1.27 4.108-6.47 12.458-14.56 10.132-9.05-2.604-10.2-11.283-7.01-17.335 1.84-3.524 4.03-19.766 27.08-48.998" stroke="#231815" stroke-width="2" stroke-miterlimit="10"/>
    <path d="M1073.48 133.469c6.5-7.481 9.48-11.213 19.61-11.142 10.13.071 20.61 8.335 26.17 21.143 5.56 12.807 6.53 17.17 6.53 17.17 6.82 22.105.44 39.191-15.71 43.134" stroke="#231815" stroke-width="2" stroke-miterlimit="10"/>
    <path d="M1103.2 205.234c-3.07.332-6.16.49-9.24.472-3.68.026-7.35-.235-10.98-.778" fill="#F49E2F"/>
    <path d="M1103.2 205.234c-3.07.332-6.16.49-9.24.472-3.68.026-7.35-.235-10.98-.778" stroke="#231815" stroke-miterlimit="10"/>
    <path d="M1121.71 167.719c0 14.463-3.88 23.431-14.96 23.431-9.27 0-16.78-8.963-16.78-23.431 0-14.467 8.5-26.19 16.78-26.19 8.28 0 14.96 11.727 14.96 26.19z" fill="#FDECD7"/>
    <path d="M1089.63 213.687s-5.43 7.741-6.38 8.557c0 2.58-.13 7.265-4.21 8.147-2.7.586-5.46.86-8.22.816-1.88 0-5.09-.052-7.13-.944-1.7-.75-4.02-2.358-5.6-6.523-1.32-3.463-.65-9.506.98-13.718 1.63-4.213 6.13-7.604 7.08-8.42l23.48 12.085z" fill="#F49E2F" stroke="#231815" stroke-width="2" stroke-miterlimit="10"/>
    <path d="m1100.92 190.467 14.85 5.335s-.36 29.718-6.13 30.421c-5.77.703-13.05-3.618-18.12-6.132s-25.27-13.619-30.84-22.03a18.99 18.99 0 0 1-2.5-6.542" fill="#F49E2F"/>
    <path d="m1100.92 190.467 14.85 5.335s-.36 29.718-6.13 30.421c-5.77.703-13.05-3.618-18.12-6.132s-25.27-13.619-30.84-22.03a18.99 18.99 0 0 1-2.5-6.542" stroke="#231815" stroke-width="2" stroke-miterlimit="10"/>
    <path d="M1079.29 222.746s-4.72 3.996-14.82 0h14.82z" fill="#F49E2F"/>
    <path d="M1079.29 222.746c-4.03 3.547-10.49 2.406-14.82 0 .65.118 1.26.274 1.89.429 4.24.92 8.89 1.566 12.93-.429z" fill="#231815"/>
    <path d="M1102 200.51s3.99-11.953 16.3-9.779c12.31 2.175 9.78 18.473 6.52 23.544-3.26 5.071-8.33 13.038-15.21 11.948-6.88-1.089-15.21-7.948-7.61-25.713z" fill="#F49E2F"/>
    <path d="M1107.25 208.338c-2 7.132-.76 17.831 2.36 17.888 5.41.103 12.92-6.605 15.57-13.525 1.93-5.005.32-13.161-4.88-14.623-5.21-1.462-11.05 3.132-13.05 10.26z" fill="#C67B21"/>
    <path d="M1124.28 201.328c-1.2-1.727-3.07-3.033-5.19-2.953-1.72.026-3.41.492-4.9 1.354a10.168 10.168 0 0 0-3.62 3.571c-1.51 2.358-2.25 5.123-2.94 7.816-.7 2.694-1.17 5.566-1.01 8.411-.74-4.246.11-8.656 1.34-12.737.88-2.783 2.4-5.495 4.84-7.207a10.258 10.258 0 0 1 6.29-1.807c2.24.047 4.24 1.646 5.19 3.571v-.019z" fill="#231815"/>
    <path d="M1102.73 198.836c1.64-3.203 6.18-9.765 15.57-8.104 12.32 2.17 9.78 18.472 6.52 23.543-3.26 5.071-7.29 11.892-14.26 12.053-2.09.112-4.18-.08-6.21-.571" stroke="#231815" stroke-width="2" stroke-miterlimit="10"/>
    <path d="M1062.48 139.08s11-6.986 17.36 11.605c6.13 17.949-20.41 12.793-20.41 12.793l-2.11 22.784s45.6 5.113 61.96 1.623c12.97-2.765 10.38-11.209 10.38-11.209s3.17-19.604-11.55-43.629c-1.24.401-2.67.175-4.66.712 0 0 2.57 5.151-1.99 6.831-6.43 2.358-13.05 2.448-19.97.943-7.65-1.665-11.19-5.189-16.04-6.755a25.777 25.777 0 0 0-9.52-1.104l-3.45 5.406z" fill="#8EC1E8" stroke="#231815" stroke-width="2" stroke-miterlimit="10"/>
    <path d="M1077.47 158.657c-2.74 8.076-5.46 15.854-5.46 15.854 1.91 5.109 2.32 8.609.18 9.571-2.55 1.147-4.13-2.962-4.13-2.962 1.27 4.109-6.47 12.458-14.56 10.133-9.05-2.604-10.2-11.284-7.01-17.336 1.3-2.491 2.78-11.321 11.67-26.624" fill="#F49E2F"/>
    <path d="M1077.47 158.657c-2.74 8.076-5.46 15.854-5.46 15.854 1.91 5.109 2.32 8.609.18 9.571-2.55 1.147-4.13-2.962-4.13-2.962 1.27 4.109-6.47 12.458-14.56 10.133-9.05-2.604-10.2-11.284-7.01-17.336 1.3-2.491 2.78-11.321 11.67-26.624" stroke="#231815" stroke-width="2" stroke-miterlimit="10"/>
    <path d="M1062.48 139.079s-9.97 12.987-17.6 34.374l28.6 6.133 6.85-21.322s4.12-18.586-9.27-21.836c-5.61-.566-8.58 2.651-8.58 2.651z" fill="#8EC1E8" stroke="#231815" stroke-width="2" stroke-miterlimit="10"/>
    <path d="M1113.81 162.369c2.36 0 4.27-1.91 4.27-4.265a4.266 4.266 0 0 0-8.53 0 4.265 4.265 0 0 0 4.26 4.265zM1115.12 177.538a4.264 4.264 0 0 0 0-8.528 4.266 4.266 0 0 0-4.27 4.264 4.266 4.266 0 0 0 4.27 4.264z" fill="#3C9CD8" stroke="#231815" stroke-width="2" stroke-miterlimit="10"/>
    <path d="M1100.78 143.507c-2.91-.013-5.8-.455-8.57-1.312a80.89 80.89 0 0 1-9.69-3.849c-5.4-2.425-10.5-4.717-16.4-4.717h-.5l.68-3.477c4.15.354 37.69 3.467 41.87 12.213a23.137 23.137 0 0 1-7.39 1.142z" fill="#E6D4C2"/>
    <path d="M1066.69 130.669c10.88.901 36.41 4.458 40.79 11.435-2.17.639-4.43.957-6.7.943a29 29 0 0 1-8.44-1.292 81.752 81.752 0 0 1-9.63-3.826c-5.42-2.434-10.55-4.717-16.51-4.75l.47-2.496m-.76-1.009-.88 4.472c.36 0 .72-.024 1.08-.024 9.14 0 16.46 5.661 25.94 8.534 2.83.873 5.77 1.323 8.72 1.335 4.96 0 8.02-1.335 8.02-1.335-3.6-10.006-42.87-12.982-42.87-12.982h-.01z" fill="#231815"/>
    <path d="M1108.26 142.077c.05-.936.22-1.861.51-2.751.72-2.174 2.08-3.637 4.03-4.344 1.42-.524 4.47-1.722 5.57-2.156l1.42 3.015c-2.64 1.929-9.06 6.217-11.53 6.236z" fill="#E6D4C2"/>
    <path d="m1118.14 133.424 1.08 2.264c-3.17 2.274-8.12 5.397-10.45 5.859.16-1.623.89-4.925 4.19-6.132 1.31-.472 3.86-1.481 5.19-2m.47-1.199s-4.19 1.661-5.97 2.312c-5.07 1.84-4.85 7.953-4.85 7.953.15.04.31.059.47.057 3.27 0 12.16-6.557 12.16-6.557l-1.8-3.774-.01.009z" fill="#231815"/>
    <path d="M1048.74 89.037c6.05 0 10.96-5.366 10.96-11.986 0-6.62-4.91-11.987-10.96-11.987-6.05 0-10.96 5.367-10.96 11.987s4.91 11.986 10.96 11.986zM1133.75 81.055c6.05 0 10.95-5.367 10.95-11.987s-4.9-11.986-10.95-11.986c-6.06 0-10.96 5.367-10.96 11.986 0 6.62 4.9 11.987 10.96 11.987z" fill="#F49E2F" stroke="#231815" stroke-width="2" stroke-miterlimit="10"/>
    <path d="M1140.21 98.42c1.86 20.874-11.16 36.465-42.62 37.399-35.3 1.047-52.51-16.51-50.88-37.398 1.96-25.002 20.93-42.927 46.75-42.927s44.52 17.916 46.75 42.927z" fill="#F49E2F" stroke="#231815" stroke-width="2" stroke-miterlimit="10"/>
    <path d="M1124.16 103.647c0 6.736-3.53 10.911-13.6 10.911-8.42 0-13.59-4.175-13.59-10.911s6.09-12.194 13.59-12.194c7.51 0 13.6 5.463 13.6 12.194z" fill="#fff"/>
    <path d="M1107.49 98.237c-.03 1.326 2.02 2.463 4.6 2.533 2.57.071 4.69-.943 4.72-2.273.02-1.33-2.02-2.463-4.6-2.538-2.57-.076-4.68.948-4.72 2.278z" fill="#040000"/>
    <path d="M1116.99 100.675c-1.08.906-2.85 1.443-4.92 1.387a8.535 8.535 0 0 1-3.86-.944c-1.3-.712-2.02-1.773-1.99-2.906.03-1.136.82-2.15 2.15-2.792a8.553 8.553 0 0 1 3.91-.74c3.39.094 5.9 1.754 5.85 3.863-.03.415-.14.821-.34 1.19-.19.367-.46.689-.8.942zm-8.18-2.406c.05.269 1.17 1.141 3.34 1.203 2.16.061 3.34-.76 3.39-1.019-.05-.25-1.16-1.137-3.33-1.198-2.17-.061-3.34.755-3.42 1.014h.02z" fill="#040000"/>
    <path d="M1093.59 83.9a6.994 6.994 0 0 1 4.55-1.68c.97-.001 1.92.197 2.8.581.89.385 1.68.949 2.34 1.656" stroke="#060102" stroke-linecap="round" stroke-linejoin="round"/>
    <path d="M1097.94 98.488c3.44 0 6.23-2.792 6.23-6.236a6.236 6.236 0 1 0-6.23 6.236z" fill="#fff" stroke="#060102" stroke-linecap="round" stroke-linejoin="round"/>
    <path d="M1097.94 96.918c2.08 0 3.78-2.088 3.78-4.665 0-2.576-1.7-4.665-3.78-4.665-2.09 0-3.78 2.089-3.78 4.665 0 2.577 1.69 4.665 3.78 4.665z" fill="#060102"/>
    <path d="M1100.94 94.427c1.03 0 1.86-.915 1.86-2.043 0-1.128-.83-2.042-1.86-2.042-1.02 0-1.85.914-1.85 2.042 0 1.128.83 2.043 1.85 2.043z" fill="#fff"/>
    <path d="M1091.85 90.912h12.18a6.259 6.259 0 0 0-2.19-3.52 6.204 6.204 0 0 0-3.9-1.376 6.26 6.26 0 0 0-3.91 1.377 6.296 6.296 0 0 0-2.18 3.519z" fill="#DF8CB8" stroke="#060102" stroke-miterlimit="10"/>
    <path d="M1120.25 79.479a6.99 6.99 0 0 1 7.35-1.1c.89.385 1.68.95 2.33 1.657" stroke="#060102" stroke-linecap="round" stroke-linejoin="round"/>
    <path d="M1130.49 92.722a6.235 6.235 0 1 0-12.31-1.99 6.235 6.235 0 1 0 12.31 1.99z" fill="#fff" stroke="#060102" stroke-linecap="round" stroke-linejoin="round"/>
    <path d="M1124.12 96.442c2.09 0 3.78-2.089 3.78-4.665 0-2.577-1.69-4.666-3.78-4.666-2.08 0-3.78 2.09-3.78 4.666 0 2.576 1.7 4.665 3.78 4.665z" fill="#060102"/>
    <path d="M1128.98 91.913c.02.516-.16 1.02-.5 1.403a1.98 1.98 0 0 1-1.35.64 1.966 1.966 0 0 1-1.86-2.043 1.97 1.97 0 0 1 1.86-2.048c.51.027 1 .258 1.35.641.34.384.53.89.5 1.407z" fill="#fff"/>
    <path d="M1118.04 90.44h12.16a6.19 6.19 0 0 0-2.18-3.521 6.251 6.251 0 0 0-3.91-1.376c-1.42.003-2.79.49-3.9 1.38-1.1.89-1.87 2.13-2.17 3.516z" fill="#DF8CB8" stroke="#060102" stroke-miterlimit="10"/>
    <path d="M1105.85 105.724c-.18 2.066 1.16 5.33 5.3 5.976 4.84.755 6.57-3.986 6.73-4.972.15-.986 0-2.118-1.56-1.759-1.55.358-4.44 1.321-7.47.208-1.73-.632-2.9-.519-3 .547z" fill="#060102" stroke="#060102" stroke-miterlimit="10"/>
    <path d="M1115.98 110.164c-.72-1.108-2.28-1.887-4.1-1.887-1.81 0-3.4.783-4.12 1.916a6.647 6.647 0 0 0 3.39 1.5 5.305 5.305 0 0 0 4.83-1.529z" fill="#EC696A" stroke="#060102" stroke-width=".75" stroke-miterlimit="10"/>
    <path d="M1138.33 101.596c0 2.08-2.83 3.774-6.31 3.774-3.47 0-6.31-1.689-6.31-3.774s2.83-3.774 6.31-3.774c3.48 0 6.31 1.694 6.31 3.774zM1095.54 102.069c0 2.08-2.83 3.773-6.31 3.773-3.47 0-6.31-1.688-6.31-3.773s2.83-3.774 6.31-3.774c3.49 0 6.31 1.693 6.31 3.774z" fill="#EC696A" stroke="#060102" stroke-miterlimit="10"/>
    <path d="M1084.14 15.29s-31.06 47.644-30.34 60.253c6.89-2.613 10.85-3.524 17.92-4.65 18.52-2.94 41.04-3.336 60.54.169-.57-10.038-37-56.404-37-56.404a6.414 6.414 0 0 0-8.9-1.858c-.95.621-1.71 1.48-2.22 2.49z" fill="#8EC1E8" stroke="#231815" stroke-width="2" stroke-miterlimit="10"/>
    <path d="M1050.28 81.263a4.708 4.708 0 0 1-4.58-3.628 4.71 4.71 0 0 1 .58-3.551 4.699 4.699 0 0 1 2.91-2.11c2.32-.551 57.19-13.4 86.33-3.81a4.744 4.744 0 0 1 2.74 2.356c.27.553.44 1.156.49 1.774.04.618-.03 1.239-.23 1.827a4.693 4.693 0 0 1-2.35 2.735c-1.12.563-2.41.66-3.6.27-26.62-8.76-80.66 3.901-81.21 4.028-.35.076-.71.113-1.08.109z" fill="#8EC1E8" stroke="#231815" stroke-width="2" stroke-miterlimit="10"/>
    <path d="M1089.23 16.68a7.84 7.84 0 1 0 0-15.68 7.84 7.84 0 0 0 0 15.68z" fill="#3C9CD8" stroke="#231815" stroke-width="2" stroke-miterlimit="10"/>
    <path d="M1112.8 103.779a7.6 7.6 0 0 0 7.6-7.605 7.6 7.6 0 1 0-15.2 0 7.6 7.6 0 0 0 7.6 7.605z" fill="#EC696A" stroke="#060102" stroke-miterlimit="10"/>
    <path d="M1109.66 100.344c.15.083.32.108.48.068a.687.687 0 0 0 .41-.28.553.553 0 0 0 .11-.209.489.489 0 0 0 .03-.239.614.614 0 0 0-.07-.23.537.537 0 0 0-.16-.18 5.016 5.016 0 0 1-1.97-2.628.534.534 0 0 0-.13-.198.639.639 0 0 0-.2-.125.598.598 0 0 0-.24-.032.528.528 0 0 0-.22.067.678.678 0 0 0-.21.142.606.606 0 0 0-.2.317.604.604 0 0 0 0 .376 5.996 5.996 0 0 0 2.37 3.151zM1111.51 100.866a.464.464 0 0 0-.06.229c0 .079.02.158.05.231a.575.575 0 0 0 .34.304c.12.031.23.056.35.076a.756.756 0 0 0 .79-.529c.02-.074.03-.152.02-.231a.44.44 0 0 0-.07-.221.482.482 0 0 0-.16-.17.518.518 0 0 0-.21-.085l-.23-.052a.676.676 0 0 0-.34.009.638.638 0 0 0-.3.175.722.722 0 0 0-.18.264z" fill="#fff"/>
    <path d="M1054.43 127.417s36.32-4.179 77.03.34v18.685s-22.86 2.136-42.92 2.287c-11.41.123-22.82-.542-34.13-1.99l.02-19.322z" fill="#fff" stroke="#060102" stroke-width="2" stroke-miterlimit="10"/>
    <path d="M1059.76 126.918v20.128M1120.29 126.314v21.025M1127.57 127.215v19.232M1070.46 125.801v22.317M1084.03 125.801v22.317M1098.11 125.801v22.317M1110.35 125.801v22.175" stroke="#060102" stroke-width="2" stroke-miterlimit="10"/>
    <path d="M1362.39 130.057c25.19 27.439 28.57 43.474 30.67 46.852 3.63 5.795 3.13 14.544-5.7 17.814-7.9 2.93-16.24-4.823-15.28-9.013 0 0-1.27 4.209-3.9 3.26-2.21-.797-2.06-4.322-.53-9.56 0 0-8.35-19.111-11.92-28.124" fill="#F49E2F"/>
    <path d="M1362.39 130.057c25.19 27.439 28.57 43.474 30.67 46.852 3.63 5.795 3.13 14.544-5.7 17.814-7.9 2.93-16.24-4.823-15.28-9.013 0 0-1.27 4.209-3.9 3.26-2.21-.797-2.06-4.322-.53-9.56 0 0-8.35-19.111-11.92-28.124" stroke="#231815" stroke-width="2" stroke-miterlimit="10"/>
    <path d="M1370.69 138.368s11.53 12.382 21.44 33.602l-28.6 10.457-9.08-21.235s-6.43-20.111 7.11-24.716c5.75-1.119 9.13 1.892 9.13 1.892z" fill="#fff" stroke="#060102" stroke-width="2" stroke-miterlimit="10"/>
    <path d="M1353.58 152.902c15.1-9.91 19.82-9.188 21.7-9.004l-2.28-3.048c-2.55-.08-5.96-.708-19.82 9.267l.4 2.785zM1354.96 162.723c.15-.16 11.17-9.301 25.27-11.844l-1.5-2.19c-12.14 1.227-20 8.641-24.68 11.325l.91 2.709zM1358.23 169.771c17.85-9.372 26.97-10.518 26.99-10.518l-1.21-2.482c-.35-.043-7.91-.708-27.09 10.494l1.31 2.506zM1361.03 176.616c9.25-3.875 18.7-7.243 28.32-10.088l-1.18-2.577a264.31 264.31 0 0 0-28.23 10.06l1.09 2.605z" fill="#060102"/>
    <path d="M1297.74 81.477c6.06 0 10.97-5.368 10.97-11.99 0-6.623-4.91-11.99-10.97-11.99-6.05 0-10.96 5.367-10.96 11.99 0 6.622 4.91 11.99 10.96 11.99zM1377.36 78.307c6.05 0 10.96-5.368 10.96-11.99s-4.91-11.99-10.96-11.99c-6.05 0-10.96 5.367-10.96 11.99 0 6.622 4.91 11.99 10.96 11.99z" fill="#F49E2F" stroke="#231815" stroke-width="2" stroke-miterlimit="10"/>
    <path d="M1324.04 203.452c-16.15-3.949-22.54-21.036-15.71-43.153 3.55-12.622 6.61-19.696 13.1-27.18 6.5-7.484 9.48-11.212 19.61-11.145 10.14.066 20.63 8.342 26.18 21.149 5.56 12.807 6.54 17.176 6.54 17.176 6.82 22.117.43 39.204-15.72 43.153" fill="#F49E2F"/>
    <path d="M1329.74 145.237c-2.88 9.259-9.78 28.936-9.78 28.936 1.91 5.11 2.32 8.616.18 9.574-2.55 1.147-4.13-2.958-4.13-2.958 1.27 4.105-6.47 12.462-14.57 10.131-9.05-2.605-10.2-11.287-7.01-17.342 1.85-3.52 4.03-19.767 27.09-49.014" fill="#F49E2F"/>
    <path d="M1329.74 145.237c-2.88 9.259-9.78 28.936-9.78 28.936 1.91 5.11 2.32 8.616.18 9.574-2.55 1.147-4.13-2.958-4.13-2.958 1.27 4.105-6.47 12.462-14.57 10.131-9.05-2.605-10.2-11.287-7.01-17.342 1.85-3.52 4.03-19.767 27.09-49.014" stroke="#231815" stroke-width="2" stroke-miterlimit="10"/>
    <path d="M1321.43 133.119c6.51-7.484 9.48-11.212 19.61-11.145 10.14.066 20.63 8.342 26.18 21.149 5.56 12.807 6.53 17.176 6.53 17.176 6.83 22.117.44 39.204-15.71 43.153" stroke="#231815" stroke-width="2" stroke-miterlimit="10"/>
    <path d="M1351.16 204.902c-3.07.332-6.16.49-9.25.472-3.67.028-7.34-.232-10.98-.778" fill="#F49E2F"/>
    <path d="M1351.16 204.902c-3.07.332-6.16.49-9.25.472-3.67.028-7.34-.232-10.98-.778" stroke="#231815" stroke-miterlimit="10"/>
    <path d="M1369.67 167.382c0 14.468-3.89 23.433-14.96 23.433-9.28 0-16.78-8.965-16.78-23.433s8.49-26.198 16.78-26.198c8.28 0 14.96 11.726 14.96 26.198z" fill="#FDECD7"/>
    <path d="M1337.62 213.363s-5.43 7.743-6.38 8.56c0 2.581-.14 7.271-4.21 8.154-2.7.583-5.46.855-8.22.811-1.89 0-5.1-.051-7.14-.943-1.7-.746-4.02-2.36-5.61-6.522-1.32-3.463-.64-9.513.99-13.722s6.14-7.611 7.08-8.428l23.49 12.09z" fill="#F49E2F" stroke="#231815" stroke-width="2" stroke-miterlimit="10"/>
    <path d="m1348.88 190.137 14.85 5.337s-.36 29.728-6.13 30.436c-5.77.708-13.05-3.624-18.12-6.163-5.08-2.539-25.29-13.618-30.85-22.037a18.595 18.595 0 0 1-2.5-6.54" fill="#F49E2F"/>
    <path d="m1348.88 190.137 14.85 5.337s-.36 29.728-6.13 30.436c-5.77.708-13.05-3.624-18.12-6.163-5.08-2.539-25.29-13.618-30.85-22.037a18.595 18.595 0 0 1-2.5-6.54" stroke="#231815" stroke-width="2" stroke-miterlimit="10"/>
    <path d="M1327.24 222.42s-4.72 4.001-14.82 0h14.82z" fill="#F49E2F"/>
    <path d="M1327.24 222.42c-4.03 3.548-10.48 2.411-14.82 0 .65.118 1.26.278 1.89.429 4.24.92 8.9 1.572 12.93-.429z" fill="#231815"/>
    <path d="M1349.96 200.183s3.99-11.957 16.31-9.782c12.31 2.176 9.78 18.479 6.52 23.552-3.27 5.072-8.34 13.042-15.22 11.957-6.88-1.085-15.23-7.975-7.61-25.727z" fill="#F49E2F"/>
    <path d="M1355.22 208.026c-2.01 7.13-.76 17.832 2.35 17.894 5.41.104 12.93-6.607 15.58-13.534 1.93-5.006.32-13.165-4.89-14.628-5.21-1.463-11.04 3.124-13.04 10.268z" fill="#C67B21"/>
    <path d="M1372.24 200.999c-1.19-1.727-3.06-3.034-5.19-2.954-1.72.027-3.4.494-4.9 1.356a10.06 10.06 0 0 0-3.61 3.571c-1.51 2.359-2.26 5.124-2.95 7.819-.7 2.694-1.17 5.573-1.01 8.413-.74-4.247.11-8.659 1.34-12.74.89-2.789 2.4-5.498 4.84-7.215a10.292 10.292 0 0 1 6.29-1.803c2.25.043 4.25 1.642 5.19 3.567v-.014z" fill="#231815"/>
    <path d="M1350.69 198.512c1.64-3.209 6.19-9.768 15.58-8.112 12.32 2.176 9.78 18.479 6.52 23.552-3.27 5.073-7.3 11.901-14.27 12.056-2.08.117-4.18-.074-6.21-.566" stroke="#231815" stroke-width="2" stroke-miterlimit="10"/>
    <path d="M1388.18 98.074c1.86 20.885-11.16 36.476-42.63 37.41-35.31 1.047-52.53-16.516-50.9-37.41 1.96-25.01 20.94-42.941 46.77-42.941 25.82 0 44.53 17.903 46.76 42.94z" fill="#F49E2F" stroke="#231815" stroke-width="2" stroke-miterlimit="10"/>
    <path d="M1372.13 103.296c0 6.739-3.53 10.91-13.6 10.91-8.43 0-13.6-4.171-13.6-10.91 0-6.738 6.09-12.202 13.6-12.202s13.6 5.464 13.6 12.202z" fill="#fff"/>
    <path d="M1352.18 91.941a6 6 0 0 1-.47 2.325 6.04 6.04 0 0 1-3.28 3.29c-.74.306-1.53.463-2.33.463s-1.59-.156-2.32-.462a6.139 6.139 0 0 1-1.98-1.317 6.041 6.041 0 0 1-1.31-1.972 6.005 6.005 0 0 1-.47-2.327c0-1.612.65-3.158 1.79-4.298a6.046 6.046 0 0 1 4.29-1.78c1.61.002 3.16.642 4.3 1.782a6.074 6.074 0 0 1 1.78 4.296z" fill="#fff" stroke="#040000" stroke-linecap="round" stroke-linejoin="round"/>
    <path d="M1348.08 91.942c.01.447-.08.89-.25 1.302-.17.413-.42.788-.74 1.104-.31.316-.69.567-1.1.738a3.407 3.407 0 0 1-4.71-3.144c0-.446.09-.888.26-1.3a3.39 3.39 0 0 1 1.85-1.839 3.399 3.399 0 0 1 3.7.738c.64.636.99 1.5.99 2.401z" fill="#040000" stroke="#040000" stroke-linecap="round" stroke-linejoin="round"/>
    <path d="M1366.08 91.941c0 .798.16 1.589.46 2.327.31.737.76 1.407 1.32 1.972a6.206 6.206 0 0 0 1.97 1.317 6.091 6.091 0 0 0 6.63-1.318 6.077 6.077 0 0 0-4.3-10.376 6.077 6.077 0 0 0-6.08 6.078z" fill="#fff" stroke="#040000" stroke-linecap="round" stroke-linejoin="round"/>
    <path d="M1370.74 95.33c1.88 0 3.41-1.523 3.41-3.402a3.406 3.406 0 0 0-6.81 0 3.406 3.406 0 0 0 3.4 3.402z" fill="#040000" stroke="#040000" stroke-linecap="round" stroke-linejoin="round"/>
    <path d="M1344.59 89.134c0 .33-.13.645-.36.879a1.246 1.246 0 0 1-1.76.002 1.257 1.257 0 0 1 0-1.76c.24-.232.55-.362.88-.362.33 0 .65.13.88.363.23.233.36.548.36.878zM1370.85 89.134c0 .33-.13.645-.36.879-.23.233-.55.365-.88.366a1.263 1.263 0 0 1-.88-.366 1.254 1.254 0 0 1 0-1.757c.24-.233.55-.363.88-.363.33 0 .65.13.88.363.23.233.36.548.36.878z" fill="#fff"/>
    <path d="M1340.36 84.756a9.622 9.622 0 0 1 4.55-2.088c1.68-.28 3.4-.11 4.99.493M1377.37 84.757a9.574 9.574 0 0 0-9.53-1.595" stroke="#040000" stroke-width="2" stroke-linecap="round" stroke-linejoin="round"/>
    <path d="M1355.46 97.876c-.04 1.325 2.02 2.463 4.59 2.534 2.57.07 4.69-.944 4.72-2.275.03-1.33-2.02-2.463-4.6-2.534-2.57-.07-4.68.944-4.71 2.275z" fill="#040000"/>
    <path d="M1364.94 100.313c-1.09.906-2.86 1.449-4.93 1.392a8.672 8.672 0 0 1-3.86-.944c-1.29-.712-2.02-1.774-1.99-2.911.04-1.133.82-2.152 2.15-2.794a8.659 8.659 0 0 1 3.91-.74c3.39.094 5.91 1.755 5.85 3.864a2.91 2.91 0 0 1-.33 1.19c-.2.368-.47.69-.8.943zm-8.19-2.402c.05.264 1.18 1.142 3.34 1.199 2.16.056 3.34-.76 3.39-1.02-.04-.25-1.16-1.137-3.33-1.198-2.17-.061-3.32.755-3.4 1.02z" fill="#040000"/>
    <path d="M1310.43 138.732s11-6.988 17.36 11.608c6.14 17.96-20.42 12.798-20.42 12.798l-2.1 22.791s44.82 2.444 60.95-2.053c16.13-4.497 11.4-7.55 11.4-7.55s3.18-19.616-11.55-43.648c-1.24.406-2.67.174-4.66.712 0 0 2.57 5.158-1.99 6.833-6.43 2.36-13.06 2.449-19.98.944-7.65-1.671-11.19-5.191-16.04-6.762a25.809 25.809 0 0 0-9.53-1.104l-3.44 5.431z" fill="#fff" stroke="#060102" stroke-width="2" stroke-miterlimit="10"/>
    <path d="M1325.43 158.318c-2.75 8.073-5.47 15.854-5.47 15.854 1.91 5.111 2.32 8.617.18 9.575-2.55 1.147-4.13-2.959-4.13-2.959 1.27 4.105-6.47 12.463-14.57 10.131-9.05-2.604-10.2-11.287-7.01-17.341 1.3-2.487 2.78-11.325 11.67-26.633" fill="#F49E2F"/>
    <path d="M1325.43 158.318c-2.75 8.073-5.47 15.854-5.47 15.854 1.91 5.111 2.32 8.617.18 9.575-2.55 1.147-4.13-2.959-4.13-2.959 1.27 4.105-6.47 12.463-14.57 10.131-9.05-2.604-10.2-11.287-7.01-17.341 1.3-2.487 2.78-11.325 11.67-26.633" stroke="#231815" stroke-width="2" stroke-miterlimit="10"/>
    <path d="M1383.31 74.695s-26.52 1.289-35.09 1.808l-1.17.075c-15.25.887-40.48 1.755-48.22 0 0 0 3.72-31.215 35.81-32.493 35.54-1.44 42.73 15.727 48.67 30.61z" fill="#64443C" stroke="#231815" stroke-width="2" stroke-miterlimit="10"/>
    <path d="M1295.15 72.656v.133c-.08.683-.03 1.377.16 2.04.19.662.5 1.28.93 1.818.44.537.97.983 1.58 1.31.6.327 1.27.529 1.95.593 12.83 1.227 36.68 1.11 54.07.817l1.54-.034c7.84-.146 19.76-.471 26.32-.646a5.17 5.17 0 0 0 3.49-1.5 5.125 5.125 0 0 0 1.51-3.478v-.472a5.063 5.063 0 0 0-.37-2.035 5.191 5.191 0 0 0-1.14-1.724 5.188 5.188 0 0 0-1.73-1.135 5.164 5.164 0 0 0-2.04-.363c-44.62 1.052-61.58.085-81.16.151a5.2 5.2 0 0 0-5.11 4.525z" fill="#64443C" stroke="#231815" stroke-width="2" stroke-miterlimit="10"/>
    <path d="M1346.05 152.586a152.02 152.02 0 0 1-17.39-1.08l.43-3.747c31.96 3.69 42.77-3.61 42.87-3.681l1.04 3.237c-.35.274-6.68 5.266-26.95 5.271zM1346.99 161.199c-6.35-.033-12.69-.496-18.97-1.387l.51-3.742c33.37 4.572 46.17-4.063 46.29-4.148l.94 3.341c-.42.311-7.85 5.936-28.77 5.936zM1346.49 171.911c-7.45-.03-14.89-.495-22.29-1.392l.87-3.775c20.08 2.392 32.95 1.203 40.21-.217 7.83-1.534 11.95-3.808 11.98-3.832l.4 3.733c-.43.316-7.9 5.483-31.17 5.483zM1342.28 180.691c-5.95 0-13.45-.397-21.11-1.17l1.12-3.672c20.45 2.062 34.23.713 42.19-.783 8.6-1.623 13.14-3.751 13.18-3.775l.11 3.813c-.51.302-9.91 5.587-35.49 5.587z" fill="#060102"/>
    <path d="M1309.72 137.517s-10.38 13.378-18.3 35.415l29.73 6.341 7.11-21.97s4.28-19.149-9.63-22.499c-5.83-.604-8.91 2.713-8.91 2.713z" fill="#fff" stroke="#060102" stroke-width="2" stroke-miterlimit="10"/>
    <path d="M1328.36 148.961c-15.94-8.494-20.86-5.875-22.74-5.521l2.01-3.242c2.52-.311 6.13-2.713 20.85 5.96l-.12 2.803zM1327.88 158.853c-.17-.142-12.6-9.947-26.53-8.022l1.29-2.317c15.26-2.104 25.41 7.144 25.9 7.55l-.66 2.789zM1325.26 166.196c-10.1-4.167-16.99-5.719-20.95-6.286a29.544 29.544 0 0 0-7.16-.264l.98-2.586c.34-.07 7.86-1.887 28.21 6.517l-1.08 2.619zM1323.1 173.261a147.932 147.932 0 0 0-29.39-6.002l.94-2.671c9.96.956 19.78 2.958 29.31 5.974l-.86 2.699z" fill="#060102"/>
    <path d="M1331.96 135.648s4.36 15.95 3.71 26.737c-.02.478.05.957.22 1.405.17.448.43.856.77 1.2.33.345.73.617 1.17.801.44.184.92.276 1.4.27h6.19a3.525 3.525 0 0 0 3.56-3.459c.08-6.828-.31-21.824-4.9-26.84l-12.12-.114z" fill="#F5B825" stroke="#040000" stroke-width="2" stroke-linecap="round" stroke-linejoin="round"/>
    <path d="M1308.59 126.512s19.62 9.192 63.97 3.303v8.494s-19.14 15.878-63.97-3.775v-8.022z" fill="#F5B825" stroke="#040000" stroke-width="2" stroke-linecap="round" stroke-linejoin="round"/>
    <path d="M1308.59 126.512s21 9.263 65.35 3.36v5.242s-22.98 10.967-65.35-.618v-7.984z" fill="#F5B825" stroke="#040000" stroke-width="2" stroke-linecap="round" stroke-linejoin="round"/>
    <path d="M1322.82 72.768c1.87-2.005 1.71-5.207-.37-7.152-2.09-1.945-5.29-1.897-7.17.108-1.87 2.005-1.7 5.206.38 7.151 2.08 1.946 5.29 1.898 7.16-.107z" fill="#EC696A" stroke="#0D0504" stroke-linecap="round" stroke-linejoin="round"/>
    <path d="M1319.76 65.814c.28 0 .56.074.8.218 0 0-.33.405-.38.471M1321.05 66.65a2.015 2.015 0 0 0-.48-.619M1320.12 65.36c.24.158.41.403.47.683.25.025.48.087.71.185" stroke="#0D0504" stroke-linecap="round" stroke-linejoin="round"/>
    <path d="M1322.91 59.385s3.78-.783 6.06 1.052c3.1 2.51 3.06 4.719 3.06 4.719s-8.39 2.822-9.12-5.771z" fill="#659BD3" stroke="#0D0504" stroke-linecap="round" stroke-linejoin="round"/>
    <path d="M1329.54 63.811a38.857 38.857 0 0 0-6.61-4.416" stroke="#0D0504" stroke-linecap="round" stroke-linejoin="round"/>
    <path d="M1320.4 66.263a.248.248 0 0 1-.08-.1c-.02-.038-.02-.08-.02-.122a15.471 15.471 0 0 1 2.74-7.673.284.284 0 0 1 .19-.121.276.276 0 0 1 .21.046.29.29 0 0 1 .12.186c.01.075 0 .152-.05.215a15.127 15.127 0 0 0-2.64 7.361c0 .038-.01.075-.02.11a.34.34 0 0 1-.07.09.246.246 0 0 1-.09.06.29.29 0 0 1-.11.019.263.263 0 0 1-.18-.071z" fill="#F5B75B" stroke="#060102" stroke-linecap="round" stroke-linejoin="round"/>
    <path d="M1355.21 93.655c0 3.092-1.23 6.058-3.42 8.245a11.64 11.64 0 0 1-8.24 3.415 11.64 11.64 0 0 1-8.24-3.415 11.651 11.651 0 0 1-3.42-8.245c0-6.441 5.22-8.772 11.66-8.772s11.66 2.34 11.66 8.772zM1385.41 93.655c0 3.092-1.23 6.058-3.42 8.245a11.64 11.64 0 0 1-8.24 3.415 11.68 11.68 0 0 1-8.25-3.415 11.684 11.684 0 0 1-3.41-8.245c0-6.441 5.22-8.772 11.66-8.772s11.66 2.34 11.66 8.772z" stroke="#231815" stroke-width="2" stroke-miterlimit="10"/>
    <path d="M1386.96 93.491h-1.77l-.3-2.864h2.07v2.864zM1331.89 93.817l-37.26 1.604v-2.86l37.85-1.91-.59 3.166z" fill="#231815"/>
    <path d="M1354.37 89.436c1.28-.599 2.67-.931 4.09-.977 1.54 0 4.43 1.359 4.43 1.359" stroke="#231815" stroke-width="6" stroke-miterlimit="10"/>
    <path d="M1349.72 106.341c2.25 1.15 4.72 1.78 7.24 1.845 3.6.113 8.33-1.388 10.38-2.78" stroke="#060102" stroke-width=".75" stroke-linecap="round" stroke-linejoin="round"/>
    <path d="M1358.86 108.145a8.082 8.082 0 0 1 1.38 1.888c1.2 2.435 2.79 3.511 4.63 2.775 2.23-.883 2.53-3.441.92-6.55a31.307 31.307 0 0 1-6.93 1.887z" fill="#EC696A" stroke="#060102" stroke-width=".75" stroke-linecap="round" stroke-linejoin="round"/>
    <path d="M1362.71 107.445c.8.869 1.34 1.945 1.56 3.105" stroke="#060102" stroke-width=".75" stroke-linecap="round" stroke-linejoin="round"/>
</svg>
